<?xml version="1.0" encoding="UTF-8" standalone="no"?>
<!-- Created with Inkscape (http://www.inkscape.org/) -->

<svg
   xmlns:dc="http://purl.org/dc/elements/1.1/"
   xmlns:cc="http://creativecommons.org/ns#"
   xmlns:rdf="http://www.w3.org/1999/02/22-rdf-syntax-ns#"
   xmlns:svg="http://www.w3.org/2000/svg"
   xmlns="http://www.w3.org/2000/svg"
   xmlns:sodipodi="http://sodipodi.sourceforge.net/DTD/sodipodi-0.dtd"
   xmlns:inkscape="http://www.inkscape.org/namespaces/inkscape"
   version="1.1"
   id="svg2"
   xml:space="preserve"
   width="1066.6667"
   height="1066.6667"
   viewBox="0 0 1066.6667 1066.6667"
   sodipodi:docname="puzzle_pieces.svg"
   inkscape:version="0.92.3 (2405546, 2018-03-11)"><metadata
     id="metadata8"><rdf:RDF><cc:Work
         rdf:about=""><dc:format>image/svg+xml</dc:format><dc:type
           rdf:resource="http://purl.org/dc/dcmitype/StillImage" /><dc:title></dc:title></cc:Work></rdf:RDF></metadata><defs
     id="defs6"><radialGradient
       fx="0"
       fy="0"
       cx="0"
       cy="0"
       r="1"
       gradientUnits="userSpaceOnUse"
       gradientTransform="matrix(400,0,0,-400,400,400)"
       spreadMethod="pad"
       id="radialGradient34"><stop
         style="stop-opacity:1;stop-color:#ffffff"
         offset="0"
         id="stop24" /><stop
         style="stop-opacity:1;stop-color:#ffffff"
         offset="0.581178"
         id="stop26" /><stop
         style="stop-opacity:1;stop-color:#ffffff"
         offset="0.74165682"
         id="stop28" /><stop
         style="stop-opacity:1;stop-color:#e8eeec"
         offset="0.997706"
         id="stop30" /><stop
         style="stop-opacity:1;stop-color:#e8eeec"
         offset="1"
         id="stop32" /></radialGradient><clipPath
       clipPathUnits="userSpaceOnUse"
       id="clipPath44"><path
         d="M 0,800 H 800 V 0 H 0 Z"
         id="path42"
         inkscape:connector-curvature="0" /></clipPath><clipPath
       clipPathUnits="userSpaceOnUse"
       id="clipPath52"><path
         d="M 280.789,36.1367 H 519.211 V 13.0645 H 280.789 Z"
         id="path50"
         inkscape:connector-curvature="0" /></clipPath><clipPath
       clipPathUnits="userSpaceOnUse"
       id="clipPath280"><path
         d="M 83.9014,578.177 H 716.979 V 87 H 83.9014 Z"
         id="path278"
         inkscape:connector-curvature="0" /></clipPath><clipPath
       clipPathUnits="userSpaceOnUse"
       id="clipPath284"><path
         d="M 83.9014,578.177 H 245.979 V 561 H 83.9014 Z"
         id="path282"
         inkscape:connector-curvature="0" /></clipPath><radialGradient
       fx="0"
       fy="0"
       cx="0"
       cy="0"
       r="1"
       gradientUnits="userSpaceOnUse"
       gradientTransform="matrix(57.404678,0,0,-10.202434,164.93994,569.58838)"
       spreadMethod="pad"
       id="radialGradient298"><stop
         style="stop-opacity:1;stop-color:#bcbcbb"
         offset="0"
         id="stop290" /><stop
         style="stop-opacity:1;stop-color:#bcbcbb"
         offset="0.103383"
         id="stop292" /><stop
         style="stop-opacity:1;stop-color:#ffffff"
         offset="0.6645648"
         id="stop294" /><stop
         style="stop-opacity:1;stop-color:#ffffff"
         offset="1"
         id="stop296" /></radialGradient><clipPath
       clipPathUnits="userSpaceOnUse"
       id="clipPath302"><path
         d="M 83.9014,420.177 H 245.979 V 403 H 83.9014 Z"
         id="path300"
         inkscape:connector-curvature="0" /></clipPath><radialGradient
       fx="0"
       fy="0"
       cx="0"
       cy="0"
       r="1"
       gradientUnits="userSpaceOnUse"
       gradientTransform="matrix(57.40469,0,0,-10.202436,164.93994,411.58838)"
       spreadMethod="pad"
       id="radialGradient316"><stop
         style="stop-opacity:1;stop-color:#bcbcbb"
         offset="0"
         id="stop308" /><stop
         style="stop-opacity:1;stop-color:#bcbcbb"
         offset="0.103383"
         id="stop310" /><stop
         style="stop-opacity:1;stop-color:#ffffff"
         offset="0.6645648"
         id="stop312" /><stop
         style="stop-opacity:1;stop-color:#ffffff"
         offset="1"
         id="stop314" /></radialGradient><clipPath
       clipPathUnits="userSpaceOnUse"
       id="clipPath320"><path
         d="M 83.9014,262.177 H 245.979 V 245 H 83.9014 Z"
         id="path318"
         inkscape:connector-curvature="0" /></clipPath><radialGradient
       fx="0"
       fy="0"
       cx="0"
       cy="0"
       r="1"
       gradientUnits="userSpaceOnUse"
       gradientTransform="matrix(57.40469,0,0,-10.202436,164.93994,253.58789)"
       spreadMethod="pad"
       id="radialGradient334"><stop
         style="stop-opacity:1;stop-color:#bcbcbb"
         offset="0"
         id="stop326" /><stop
         style="stop-opacity:1;stop-color:#bcbcbb"
         offset="0.103383"
         id="stop328" /><stop
         style="stop-opacity:1;stop-color:#ffffff"
         offset="0.6645648"
         id="stop330" /><stop
         style="stop-opacity:1;stop-color:#ffffff"
         offset="1"
         id="stop332" /></radialGradient><clipPath
       clipPathUnits="userSpaceOnUse"
       id="clipPath338"><path
         d="M 83.9014,104.177 H 245.979 V 87 H 83.9014 Z"
         id="path336"
         inkscape:connector-curvature="0" /></clipPath><radialGradient
       fx="0"
       fy="0"
       cx="0"
       cy="0"
       r="1"
       gradientUnits="userSpaceOnUse"
       gradientTransform="matrix(57.40469,0,0,-10.202436,164.93994,95.587891)"
       spreadMethod="pad"
       id="radialGradient352"><stop
         style="stop-opacity:1;stop-color:#bcbcbb"
         offset="0"
         id="stop344" /><stop
         style="stop-opacity:1;stop-color:#bcbcbb"
         offset="0.103383"
         id="stop346" /><stop
         style="stop-opacity:1;stop-color:#ffffff"
         offset="0.6645648"
         id="stop348" /><stop
         style="stop-opacity:1;stop-color:#ffffff"
         offset="1"
         id="stop350" /></radialGradient><clipPath
       clipPathUnits="userSpaceOnUse"
       id="clipPath356"><path
         d="M 240.901,578.177 H 402.979 V 561 H 240.901 Z"
         id="path354"
         inkscape:connector-curvature="0" /></clipPath><radialGradient
       fx="0"
       fy="0"
       cx="0"
       cy="0"
       r="1"
       gradientUnits="userSpaceOnUse"
       gradientTransform="matrix(57.404678,0,0,-10.202434,321.93945,569.58838)"
       spreadMethod="pad"
       id="radialGradient370"><stop
         style="stop-opacity:1;stop-color:#bcbcbb"
         offset="0"
         id="stop362" /><stop
         style="stop-opacity:1;stop-color:#bcbcbb"
         offset="0.103383"
         id="stop364" /><stop
         style="stop-opacity:1;stop-color:#ffffff"
         offset="0.6645648"
         id="stop366" /><stop
         style="stop-opacity:1;stop-color:#ffffff"
         offset="1"
         id="stop368" /></radialGradient><clipPath
       clipPathUnits="userSpaceOnUse"
       id="clipPath374"><path
         d="M 240.901,420.177 H 402.979 V 403 H 240.901 Z"
         id="path372"
         inkscape:connector-curvature="0" /></clipPath><radialGradient
       fx="0"
       fy="0"
       cx="0"
       cy="0"
       r="1"
       gradientUnits="userSpaceOnUse"
       gradientTransform="matrix(57.40469,0,0,-10.202436,321.93945,411.58838)"
       spreadMethod="pad"
       id="radialGradient388"><stop
         style="stop-opacity:1;stop-color:#bcbcbb"
         offset="0"
         id="stop380" /><stop
         style="stop-opacity:1;stop-color:#bcbcbb"
         offset="0.103383"
         id="stop382" /><stop
         style="stop-opacity:1;stop-color:#ffffff"
         offset="0.6645648"
         id="stop384" /><stop
         style="stop-opacity:1;stop-color:#ffffff"
         offset="1"
         id="stop386" /></radialGradient><clipPath
       clipPathUnits="userSpaceOnUse"
       id="clipPath392"><path
         d="M 240.901,262.177 H 402.979 V 245 H 240.901 Z"
         id="path390"
         inkscape:connector-curvature="0" /></clipPath><radialGradient
       fx="0"
       fy="0"
       cx="0"
       cy="0"
       r="1"
       gradientUnits="userSpaceOnUse"
       gradientTransform="matrix(57.40469,0,0,-10.202436,321.93945,253.58789)"
       spreadMethod="pad"
       id="radialGradient406"><stop
         style="stop-opacity:1;stop-color:#bcbcbb"
         offset="0"
         id="stop398" /><stop
         style="stop-opacity:1;stop-color:#bcbcbb"
         offset="0.103383"
         id="stop400" /><stop
         style="stop-opacity:1;stop-color:#ffffff"
         offset="0.6645648"
         id="stop402" /><stop
         style="stop-opacity:1;stop-color:#ffffff"
         offset="1"
         id="stop404" /></radialGradient><clipPath
       clipPathUnits="userSpaceOnUse"
       id="clipPath410"><path
         d="M 240.901,104.177 H 402.979 V 87 H 240.901 Z"
         id="path408"
         inkscape:connector-curvature="0" /></clipPath><radialGradient
       fx="0"
       fy="0"
       cx="0"
       cy="0"
       r="1"
       gradientUnits="userSpaceOnUse"
       gradientTransform="matrix(57.40469,0,0,-10.202436,321.93945,95.587891)"
       spreadMethod="pad"
       id="radialGradient424"><stop
         style="stop-opacity:1;stop-color:#bcbcbb"
         offset="0"
         id="stop416" /><stop
         style="stop-opacity:1;stop-color:#bcbcbb"
         offset="0.103383"
         id="stop418" /><stop
         style="stop-opacity:1;stop-color:#ffffff"
         offset="0.6645648"
         id="stop420" /><stop
         style="stop-opacity:1;stop-color:#ffffff"
         offset="1"
         id="stop422" /></radialGradient><clipPath
       clipPathUnits="userSpaceOnUse"
       id="clipPath428"><path
         d="M 397.901,578.177 H 559.979 V 561 H 397.901 Z"
         id="path426"
         inkscape:connector-curvature="0" /></clipPath><radialGradient
       fx="0"
       fy="0"
       cx="0"
       cy="0"
       r="1"
       gradientUnits="userSpaceOnUse"
       gradientTransform="matrix(57.404678,0,0,-10.202434,478.93945,569.58838)"
       spreadMethod="pad"
       id="radialGradient442"><stop
         style="stop-opacity:1;stop-color:#bcbcbb"
         offset="0"
         id="stop434" /><stop
         style="stop-opacity:1;stop-color:#bcbcbb"
         offset="0.103383"
         id="stop436" /><stop
         style="stop-opacity:1;stop-color:#ffffff"
         offset="0.6645648"
         id="stop438" /><stop
         style="stop-opacity:1;stop-color:#ffffff"
         offset="1"
         id="stop440" /></radialGradient><clipPath
       clipPathUnits="userSpaceOnUse"
       id="clipPath446"><path
         d="M 397.901,420.177 H 559.979 V 403 H 397.901 Z"
         id="path444"
         inkscape:connector-curvature="0" /></clipPath><radialGradient
       fx="0"
       fy="0"
       cx="0"
       cy="0"
       r="1"
       gradientUnits="userSpaceOnUse"
       gradientTransform="matrix(57.40469,0,0,-10.202436,478.93945,411.58838)"
       spreadMethod="pad"
       id="radialGradient460"><stop
         style="stop-opacity:1;stop-color:#bcbcbb"
         offset="0"
         id="stop452" /><stop
         style="stop-opacity:1;stop-color:#bcbcbb"
         offset="0.103383"
         id="stop454" /><stop
         style="stop-opacity:1;stop-color:#ffffff"
         offset="0.6645648"
         id="stop456" /><stop
         style="stop-opacity:1;stop-color:#ffffff"
         offset="1"
         id="stop458" /></radialGradient><clipPath
       clipPathUnits="userSpaceOnUse"
       id="clipPath464"><path
         d="M 397.901,262.177 H 559.979 V 245 H 397.901 Z"
         id="path462"
         inkscape:connector-curvature="0" /></clipPath><radialGradient
       fx="0"
       fy="0"
       cx="0"
       cy="0"
       r="1"
       gradientUnits="userSpaceOnUse"
       gradientTransform="matrix(57.40469,0,0,-10.202436,478.93945,253.58789)"
       spreadMethod="pad"
       id="radialGradient478"><stop
         style="stop-opacity:1;stop-color:#bcbcbb"
         offset="0"
         id="stop470" /><stop
         style="stop-opacity:1;stop-color:#bcbcbb"
         offset="0.103383"
         id="stop472" /><stop
         style="stop-opacity:1;stop-color:#ffffff"
         offset="0.6645648"
         id="stop474" /><stop
         style="stop-opacity:1;stop-color:#ffffff"
         offset="1"
         id="stop476" /></radialGradient><clipPath
       clipPathUnits="userSpaceOnUse"
       id="clipPath482"><path
         d="M 397.901,104.177 H 559.979 V 87 H 397.901 Z"
         id="path480"
         inkscape:connector-curvature="0" /></clipPath><radialGradient
       fx="0"
       fy="0"
       cx="0"
       cy="0"
       r="1"
       gradientUnits="userSpaceOnUse"
       gradientTransform="matrix(57.40469,0,0,-10.202436,478.93945,95.587891)"
       spreadMethod="pad"
       id="radialGradient496"><stop
         style="stop-opacity:1;stop-color:#bcbcbb"
         offset="0"
         id="stop488" /><stop
         style="stop-opacity:1;stop-color:#bcbcbb"
         offset="0.103383"
         id="stop490" /><stop
         style="stop-opacity:1;stop-color:#ffffff"
         offset="0.6645648"
         id="stop492" /><stop
         style="stop-opacity:1;stop-color:#ffffff"
         offset="1"
         id="stop494" /></radialGradient><clipPath
       clipPathUnits="userSpaceOnUse"
       id="clipPath500"><path
         d="M 554.901,578.177 H 716.979 V 561 H 554.901 Z"
         id="path498"
         inkscape:connector-curvature="0" /></clipPath><radialGradient
       fx="0"
       fy="0"
       cx="0"
       cy="0"
       r="1"
       gradientUnits="userSpaceOnUse"
       gradientTransform="matrix(57.40493,0,0,-10.202478,635.93945,569.58838)"
       spreadMethod="pad"
       id="radialGradient514"><stop
         style="stop-opacity:1;stop-color:#bcbcbb"
         offset="0"
         id="stop506" /><stop
         style="stop-opacity:1;stop-color:#bcbcbb"
         offset="0.103383"
         id="stop508" /><stop
         style="stop-opacity:1;stop-color:#ffffff"
         offset="0.6645648"
         id="stop510" /><stop
         style="stop-opacity:1;stop-color:#ffffff"
         offset="1"
         id="stop512" /></radialGradient><clipPath
       clipPathUnits="userSpaceOnUse"
       id="clipPath518"><path
         d="M 554.901,420.177 H 716.979 V 403 H 554.901 Z"
         id="path516"
         inkscape:connector-curvature="0" /></clipPath><radialGradient
       fx="0"
       fy="0"
       cx="0"
       cy="0"
       r="1"
       gradientUnits="userSpaceOnUse"
       gradientTransform="matrix(57.404934,0,0,-10.202479,635.93945,411.58838)"
       spreadMethod="pad"
       id="radialGradient532"><stop
         style="stop-opacity:1;stop-color:#bcbcbb"
         offset="0"
         id="stop524" /><stop
         style="stop-opacity:1;stop-color:#bcbcbb"
         offset="0.103383"
         id="stop526" /><stop
         style="stop-opacity:1;stop-color:#ffffff"
         offset="0.6645648"
         id="stop528" /><stop
         style="stop-opacity:1;stop-color:#ffffff"
         offset="1"
         id="stop530" /></radialGradient><clipPath
       clipPathUnits="userSpaceOnUse"
       id="clipPath536"><path
         d="M 554.901,262.177 H 716.979 V 245 H 554.901 Z"
         id="path534"
         inkscape:connector-curvature="0" /></clipPath><radialGradient
       fx="0"
       fy="0"
       cx="0"
       cy="0"
       r="1"
       gradientUnits="userSpaceOnUse"
       gradientTransform="matrix(57.404934,0,0,-10.202479,635.93945,253.58789)"
       spreadMethod="pad"
       id="radialGradient550"><stop
         style="stop-opacity:1;stop-color:#bcbcbb"
         offset="0"
         id="stop542" /><stop
         style="stop-opacity:1;stop-color:#bcbcbb"
         offset="0.103383"
         id="stop544" /><stop
         style="stop-opacity:1;stop-color:#ffffff"
         offset="0.6645648"
         id="stop546" /><stop
         style="stop-opacity:1;stop-color:#ffffff"
         offset="1"
         id="stop548" /></radialGradient><clipPath
       clipPathUnits="userSpaceOnUse"
       id="clipPath554"><path
         d="M 554.901,104.177 H 716.979 V 87 H 554.901 Z"
         id="path552"
         inkscape:connector-curvature="0" /></clipPath><radialGradient
       fx="0"
       fy="0"
       cx="0"
       cy="0"
       r="1"
       gradientUnits="userSpaceOnUse"
       gradientTransform="matrix(57.404934,0,0,-10.202479,635.93945,95.587891)"
       spreadMethod="pad"
       id="radialGradient568"><stop
         style="stop-opacity:1;stop-color:#bcbcbb"
         offset="0"
         id="stop560" /><stop
         style="stop-opacity:1;stop-color:#bcbcbb"
         offset="0.103383"
         id="stop562" /><stop
         style="stop-opacity:1;stop-color:#ffffff"
         offset="0.6645648"
         id="stop564" /><stop
         style="stop-opacity:1;stop-color:#ffffff"
         offset="1"
         id="stop566" /></radialGradient></defs><sodipodi:namedview
     pagecolor="#ffffff"
     bordercolor="#666666"
     borderopacity="1"
     objecttolerance="10"
     gridtolerance="10"
     guidetolerance="10"
     inkscape:pageopacity="0"
     inkscape:pageshadow="2"
     inkscape:window-width="1600"
     inkscape:window-height="837"
     id="namedview4"
     showgrid="false"
     inkscape:zoom="1.2515789"
     inkscape:cx="523.40142"
     inkscape:cy="731.10744"
     inkscape:window-x="-8"
     inkscape:window-y="-8"
     inkscape:window-maximized="1"
     inkscape:current-layer="g10" /><g
     id="g10"
     inkscape:groupmode="layer"
     inkscape:label="15172-NQ14LX"
     transform="matrix(1.3333333,0,0,-1.3333333,0,1066.6667)"><g
       id="g46"><g
         id="g48" /><g
         id="g180"><g
           clip-path="url(#clipPath52)"
           id="g178"
           style="opacity:0.30000299"><g
             transform="translate(283.3916,22.2012)"
             id="g56"><path
               d="m 0,0 c 0,-0.703 0.109,-1.301 0.328,-1.795 0.218,-0.494 0.517,-0.865 0.897,-1.115 0.38,-0.25 0.795,-0.377 1.244,-0.377 0.456,0 0.872,0.119 1.25,0.357 0.376,0.237 0.677,0.602 0.902,1.092 0.225,0.49 0.337,1.106 0.337,1.838 0,0.691 -0.112,1.285 -0.337,1.783 C 4.396,2.279 4.092,2.658 3.709,2.922 3.326,3.184 2.906,3.314 2.451,3.314 1.976,3.314 1.552,3.18 1.178,2.912 0.804,2.643 0.515,2.258 0.309,1.754 0.103,1.25 0,0.666 0,0 m 5.101,-3.809 v 0.258 C 4.752,-3.949 4.409,-4.275 4.07,-4.523 3.731,-4.775 3.364,-4.965 2.968,-5.094 2.572,-5.227 2.141,-5.289 1.672,-5.289 c -0.621,0 -1.196,0.131 -1.725,0.393 -0.528,0.263 -0.986,0.638 -1.371,1.126 -0.388,0.487 -0.68,1.059 -0.879,1.719 -0.199,0.658 -0.3,1.371 -0.3,2.137 0,1.621 0.396,2.885 1.188,3.791 C -0.624,4.781 0.418,5.234 1.71,5.234 2.457,5.234 3.087,5.105 3.6,4.85 4.113,4.594 4.613,4.197 5.101,3.668 v 3.826 c 0,0.533 0.105,0.934 0.318,1.207 C 5.63,8.973 5.933,9.109 6.326,9.109 6.718,9.109 7.02,8.984 7.232,8.734 7.445,8.482 7.551,8.115 7.551,7.627 V -3.809 c 0,-0.494 -0.114,-0.863 -0.342,-1.111 -0.228,-0.246 -0.522,-0.369 -0.883,-0.369 -0.355,0 -0.648,0.127 -0.879,0.383 -0.231,0.258 -0.346,0.623 -0.346,1.097"
               style="fill:#333332;fill-opacity:1;fill-rule:nonzero;stroke:none"
               id="path54"
               inkscape:connector-curvature="0" /></g><g
             transform="translate(294.8545,23.0176)"
             id="g60"><path
               d="M 0,0 H 4.702 C 4.639,0.887 4.398,1.551 3.984,1.99 3.569,2.432 3.024,2.65 2.346,2.65 1.7,2.65 1.169,2.428 0.755,1.982 0.34,1.535 0.089,0.875 0,0 M 5.071,-1.473 H 0 c 0.006,-0.588 0.125,-1.107 0.356,-1.556 0.231,-0.45 0.539,-0.789 0.921,-1.016 0.384,-0.228 0.806,-0.342 1.268,-0.342 0.31,0 0.594,0.035 0.851,0.108 0.256,0.074 0.504,0.187 0.746,0.343 0.24,0.155 0.462,0.321 0.664,0.498 0.202,0.178 0.465,0.42 0.788,0.723 0.133,0.113 0.323,0.172 0.571,0.172 0.266,0 0.481,-0.074 0.645,-0.221 0.164,-0.146 0.248,-0.349 0.248,-0.617 0,-0.234 -0.093,-0.506 -0.276,-0.82 C 6.597,-4.516 6.32,-4.816 5.951,-5.104 5.579,-5.393 5.115,-5.631 4.554,-5.82 3.994,-6.012 3.35,-6.105 2.621,-6.105 c -1.664,0 -2.96,0.474 -3.884,1.423 -0.925,0.95 -1.386,2.239 -1.386,3.866 0,0.767 0.113,1.478 0.341,2.132 0.228,0.657 0.561,1.217 0.997,1.686 0.437,0.469 0.975,0.828 1.615,1.078 0.639,0.25 1.349,0.375 2.128,0.375 1.012,0 1.881,-0.213 2.606,-0.641 C 5.764,3.387 6.307,2.834 6.667,2.158 7.027,1.48 7.209,0.789 7.209,0.088 7.209,-0.566 7.022,-0.988 6.649,-1.182 6.276,-1.375 5.75,-1.473 5.071,-1.473"
               style="fill:#333332;fill-opacity:1;fill-rule:nonzero;stroke:none"
               id="path58"
               inkscape:connector-curvature="0" /></g><g
             transform="translate(311.7407,20.3027)"
             id="g64"><path
               d="m 0,0 c 0,-0.715 -0.173,-1.328 -0.522,-1.838 -0.348,-0.51 -0.863,-0.896 -1.544,-1.16 -0.68,-0.262 -1.508,-0.393 -2.483,-0.393 -0.931,0 -1.729,0.143 -2.394,0.428 -0.664,0.283 -1.156,0.641 -1.472,1.067 -0.316,0.429 -0.475,0.857 -0.475,1.289 0,0.285 0.101,0.527 0.305,0.73 0.202,0.201 0.459,0.303 0.769,0.303 0.272,0 0.48,-0.067 0.626,-0.199 0.146,-0.133 0.286,-0.321 0.418,-0.559 0.266,-0.465 0.585,-0.807 0.955,-1.037 0.37,-0.227 0.875,-0.342 1.515,-0.342 0.519,0 0.945,0.117 1.278,0.348 0.332,0.232 0.498,0.496 0.498,0.793 0,0.457 -0.172,0.787 -0.518,0.996 -0.345,0.209 -0.914,0.41 -1.705,0.599 -0.893,0.221 -1.619,0.455 -2.18,0.7 -0.56,0.242 -1.008,0.564 -1.343,0.963 -0.336,0.398 -0.504,0.89 -0.504,1.472 0,0.518 0.155,1.01 0.465,1.473 0.311,0.461 0.769,0.83 1.374,1.105 0.604,0.276 1.333,0.414 2.188,0.414 0.671,0 1.275,-0.07 1.809,-0.211 0.536,-0.136 0.983,-0.326 1.34,-0.56 0.358,-0.233 0.63,-0.492 0.816,-0.777 0.187,-0.286 0.28,-0.563 0.28,-0.836 0,-0.297 -0.1,-0.541 -0.298,-0.733 C -1.001,3.848 -1.285,3.75 -1.653,3.75 c -0.266,0 -0.492,0.076 -0.679,0.23 -0.186,0.151 -0.4,0.379 -0.641,0.682 C -3.169,4.916 -3.399,5.119 -3.666,5.271 -3.932,5.424 -4.292,5.498 -4.749,5.498 -5.218,5.498 -5.606,5.4 -5.917,5.199 -6.227,5 -6.382,4.752 -6.382,4.455 c 0,-0.273 0.113,-0.496 0.341,-0.67 0.229,-0.176 0.535,-0.32 0.922,-0.433 0.387,-0.114 0.917,-0.252 1.596,-0.416 0.803,-0.198 1.46,-0.432 1.97,-0.704 0.51,-0.271 0.896,-0.593 1.16,-0.964 C -0.131,0.896 0,0.475 0,0"
               style="fill:#333332;fill-opacity:1;fill-rule:nonzero;stroke:none"
               id="path62"
               inkscape:connector-curvature="0" /></g><g
             transform="translate(315.6724,25.9824)"
             id="g68"><path
               d="m 0,0 v -7.494 c 0,-0.52 -0.124,-0.912 -0.371,-1.178 -0.247,-0.266 -0.56,-0.398 -0.94,-0.398 -0.38,0 -0.689,0.134 -0.926,0.408 -0.238,0.271 -0.356,0.662 -0.356,1.168 v 7.418 c 0,0.512 0.118,0.898 0.356,1.158 0.237,0.26 0.546,0.391 0.926,0.391 0.38,0 0.693,-0.131 0.94,-0.391 C -0.124,0.822 0,0.461 0,0 m -1.283,2.678 c -0.361,0 -0.669,0.111 -0.925,0.332 -0.257,0.22 -0.385,0.535 -0.385,0.941 0,0.367 0.131,0.668 0.394,0.906 0.262,0.239 0.569,0.358 0.916,0.358 0.336,0 0.634,-0.108 0.893,-0.324 C -0.13,4.676 0,4.363 0,3.951 0,3.551 -0.127,3.24 -0.381,3.016 -0.634,2.791 -0.935,2.678 -1.283,2.678"
               style="fill:#333332;fill-opacity:1;fill-rule:nonzero;stroke:none"
               id="path66"
               inkscape:connector-curvature="0" /></g><g
             transform="translate(319.5181,22.2676)"
             id="g72"><path
               d="m 0,0 c 0,-1.051 0.229,-1.846 0.688,-2.383 0.459,-0.539 1.053,-0.808 1.781,-0.808 0.43,0 0.837,0.117 1.22,0.347 0.384,0.231 0.695,0.58 0.936,1.045 0.24,0.465 0.361,1.029 0.361,1.695 0,1.057 -0.232,1.881 -0.698,2.469 C 3.822,2.953 3.21,3.248 2.45,3.248 1.708,3.248 1.115,2.967 0.669,2.402 0.223,1.84 0,1.039 0,0 M 7.513,3.287 V -4.244 C 7.513,-5.105 7.42,-5.848 7.236,-6.469 7.054,-7.088 6.759,-7.602 6.354,-8.006 5.948,-8.41 5.418,-8.713 4.763,-8.908 4.108,-9.105 3.292,-9.203 2.317,-9.203 c -0.893,0 -1.691,0.125 -2.394,0.375 -0.702,0.252 -1.243,0.574 -1.624,0.969 -0.379,0.396 -0.57,0.802 -0.57,1.22 0,0.317 0.108,0.577 0.324,0.774 0.215,0.201 0.475,0.301 0.778,0.301 0.38,0 0.712,-0.168 0.998,-0.504 0.138,-0.17 0.282,-0.344 0.431,-0.518 0.149,-0.176 0.315,-0.324 0.494,-0.447 0.181,-0.123 0.398,-0.215 0.651,-0.276 0.253,-0.058 0.545,-0.089 0.874,-0.089 0.671,0 1.192,0.093 1.563,0.281 0.37,0.185 0.63,0.447 0.779,0.783 0.149,0.334 0.235,0.693 0.261,1.078 0.025,0.383 0.044,0.998 0.056,1.848 C 4.539,-3.967 4.08,-4.391 3.556,-4.682 3.034,-4.973 2.412,-5.119 1.69,-5.119 c -0.867,0 -1.625,0.223 -2.275,0.666 -0.648,0.443 -1.147,1.062 -1.495,1.861 -0.349,0.799 -0.522,1.719 -0.522,2.764 0,0.777 0.105,1.482 0.317,2.107 0.213,0.629 0.515,1.157 0.908,1.588 0.392,0.43 0.845,0.754 1.357,0.973 0.513,0.219 1.077,0.328 1.691,0.328 0.734,0 1.371,-0.143 1.91,-0.422 0.537,-0.283 1.038,-0.725 1.5,-1.326 v 0.351 c 0,0.45 0.11,0.797 0.332,1.045 0.222,0.246 0.507,0.371 0.856,0.371 0.5,0 0.832,-0.164 0.996,-0.49 C 7.43,4.371 7.513,3.9 7.513,3.287"
               style="fill:#333332;fill-opacity:1;fill-rule:nonzero;stroke:none"
               id="path70"
               inkscape:connector-curvature="0" /></g><g
             transform="translate(331.1519,26.0195)"
             id="g76"><path
               d="M 0,0 V -0.312 C 0.455,0.289 0.954,0.73 1.496,1.012 2.037,1.293 2.659,1.436 3.362,1.436 4.046,1.436 4.657,1.285 5.195,0.988 5.733,0.689 6.136,0.27 6.401,-0.273 6.573,-0.592 6.683,-0.934 6.733,-1.301 6.784,-1.668 6.811,-2.137 6.811,-2.707 v -4.824 c 0,-0.52 -0.12,-0.912 -0.357,-1.178 -0.238,-0.266 -0.546,-0.398 -0.926,-0.398 -0.387,0 -0.7,0.134 -0.941,0.408 -0.241,0.271 -0.36,0.662 -0.36,1.168 v 4.322 c 0,0.854 -0.12,1.508 -0.357,1.961 -0.238,0.451 -0.71,0.68 -1.42,0.68 -0.462,0 -0.883,-0.139 -1.263,-0.414 C 0.807,-1.258 0.528,-1.637 0.351,-2.117 0.225,-2.504 0.161,-3.225 0.161,-4.283 v -3.248 c 0,-0.526 -0.122,-0.92 -0.365,-1.184 -0.244,-0.262 -0.559,-0.392 -0.945,-0.392 -0.374,0 -0.681,0.134 -0.922,0.408 -0.24,0.271 -0.361,0.662 -0.361,1.168 v 7.494 c 0,0.494 0.108,0.863 0.323,1.107 0.215,0.242 0.51,0.366 0.883,0.366 0.228,0 0.434,-0.055 0.619,-0.163 0.182,-0.109 0.33,-0.269 0.441,-0.484 C -0.055,0.574 0,0.311 0,0"
               style="fill:#333332;fill-opacity:1;fill-rule:nonzero;stroke:none"
               id="path74"
               inkscape:connector-curvature="0" /></g><g
             transform="translate(341.855,23.0176)"
             id="g80"><path
               d="M 0,0 H 4.701 C 4.638,0.887 4.399,1.551 3.984,1.99 3.569,2.432 3.023,2.65 2.346,2.65 1.7,2.65 1.169,2.428 0.754,1.982 0.339,1.535 0.089,0.875 0,0 M 5.071,-1.473 H 0 c 0.007,-0.588 0.125,-1.107 0.356,-1.556 0.231,-0.45 0.538,-0.789 0.922,-1.016 0.382,-0.228 0.805,-0.342 1.267,-0.342 0.31,0 0.594,0.035 0.851,0.108 0.255,0.074 0.504,0.187 0.746,0.343 0.239,0.155 0.461,0.321 0.665,0.498 0.201,0.178 0.464,0.42 0.787,0.723 0.133,0.113 0.323,0.172 0.57,0.172 0.266,0 0.482,-0.074 0.646,-0.221 0.165,-0.146 0.247,-0.349 0.247,-0.617 0,-0.234 -0.092,-0.506 -0.276,-0.82 C 6.597,-4.516 6.32,-4.816 5.95,-5.104 5.579,-5.393 5.115,-5.631 4.554,-5.82 3.994,-6.012 3.349,-6.105 2.621,-6.105 c -1.665,0 -2.96,0.474 -3.885,1.423 -0.924,0.95 -1.386,2.239 -1.386,3.866 0,0.767 0.114,1.478 0.341,2.132 0.228,0.657 0.561,1.217 0.998,1.686 0.437,0.469 0.976,0.828 1.615,1.078 0.639,0.25 1.349,0.375 2.128,0.375 1.012,0 1.88,-0.213 2.606,-0.641 C 5.763,3.387 6.306,2.834 6.667,2.158 7.028,1.48 7.209,0.789 7.209,0.088 7.209,-0.566 7.022,-0.988 6.648,-1.182 6.275,-1.375 5.75,-1.473 5.071,-1.473"
               style="fill:#333332;fill-opacity:1;fill-rule:nonzero;stroke:none"
               id="path78"
               inkscape:connector-curvature="0" /></g><g
             transform="translate(352.3965,22.2012)"
             id="g84"><path
               d="M 0,0 C 0,-0.703 0.108,-1.301 0.327,-1.795 0.545,-2.289 0.845,-2.66 1.226,-2.91 1.605,-3.16 2.02,-3.287 2.469,-3.287 c 0.456,0 0.873,0.119 1.249,0.357 0.377,0.237 0.678,0.602 0.902,1.092 C 4.845,-1.348 4.958,-0.732 4.958,0 4.958,0.691 4.845,1.285 4.62,1.783 4.396,2.279 4.092,2.658 3.708,2.922 3.325,3.184 2.906,3.314 2.45,3.314 1.976,3.314 1.551,3.18 1.177,2.912 0.804,2.643 0.514,2.258 0.308,1.754 0.102,1.25 0,0.666 0,0 m 5.1,-3.809 v 0.258 C 4.751,-3.949 4.408,-4.275 4.069,-4.523 3.73,-4.775 3.364,-4.965 2.968,-5.094 2.573,-5.227 2.14,-5.289 1.672,-5.289 c -0.622,0 -1.196,0.131 -1.724,0.393 -0.529,0.263 -0.987,0.638 -1.373,1.126 -0.387,0.487 -0.679,1.059 -0.878,1.719 -0.2,0.658 -0.3,1.371 -0.3,2.137 0,1.621 0.396,2.885 1.187,3.791 0.792,0.904 1.834,1.357 3.125,1.357 C 2.457,5.234 3.087,5.105 3.6,4.85 4.112,4.594 4.613,4.197 5.1,3.668 V 7.494 C 5.1,8.027 5.206,8.428 5.418,8.701 5.63,8.973 5.933,9.109 6.326,9.109 6.718,9.109 7.02,8.984 7.232,8.734 7.444,8.482 7.551,8.115 7.551,7.627 V -3.809 C 7.551,-4.303 7.437,-4.672 7.209,-4.92 6.981,-5.166 6.687,-5.289 6.326,-5.289 5.971,-5.289 5.678,-5.162 5.447,-4.906 5.215,-4.648 5.1,-4.283 5.1,-3.809"
               style="fill:#333332;fill-opacity:1;fill-rule:nonzero;stroke:none"
               id="path82"
               inkscape:connector-curvature="0" /></g><g
             transform="translate(368.2178,22.125)"
             id="g88"><path
               d="m 0,0 c 0,-1.031 0.236,-1.824 0.708,-2.377 0.471,-0.555 1.09,-0.834 1.856,-0.834 0.652,0 1.215,0.283 1.686,0.852 0.472,0.566 0.708,1.379 0.708,2.435 C 4.958,0.76 4.86,1.35 4.664,1.844 4.467,2.338 4.189,2.719 3.828,2.988 3.467,3.256 3.045,3.391 2.564,3.391 2.071,3.391 1.63,3.256 1.244,2.988 0.858,2.719 0.554,2.33 0.332,1.82 0.111,1.311 0,0.703 0,0 M -0.124,7.703 V 3.744 c 0.488,0.506 0.985,0.895 1.492,1.162 0.506,0.27 1.133,0.405 1.881,0.405 0.861,0 1.615,-0.206 2.265,-0.612 0.648,-0.41 1.152,-1.002 1.51,-1.777 0.357,-0.776 0.537,-1.695 0.537,-2.76 0,-0.785 -0.1,-1.504 -0.299,-2.16 C 7.062,-2.654 6.772,-3.223 6.393,-3.703 6.012,-4.184 5.552,-4.557 5.011,-4.82 4.469,-5.082 3.872,-5.213 3.22,-5.213 c -0.399,0 -0.775,0.047 -1.125,0.143 -0.352,0.093 -0.652,0.218 -0.898,0.375 -0.246,0.154 -0.457,0.314 -0.632,0.478 -0.174,0.164 -0.404,0.412 -0.689,0.742 v -0.257 c 0,-0.487 -0.117,-0.856 -0.351,-1.108 -0.233,-0.25 -0.531,-0.373 -0.893,-0.373 -0.367,0 -0.66,0.123 -0.878,0.373 -0.219,0.252 -0.328,0.621 -0.328,1.108 V 7.59 c 0,0.525 0.106,0.924 0.318,1.191 0.212,0.27 0.509,0.405 0.888,0.405 0.4,0 0.706,-0.129 0.922,-0.385 0.215,-0.258 0.322,-0.621 0.322,-1.098"
               style="fill:#333332;fill-opacity:1;fill-rule:nonzero;stroke:none"
               id="path86"
               inkscape:connector-curvature="0" /></g><g
             transform="translate(379.1401,16.5879)"
             id="g92"><path
               d="m 0,0 0.237,0.58 -3.191,8.035 c -0.196,0.461 -0.295,0.799 -0.295,1.008 0,0.221 0.058,0.426 0.171,0.615 0.115,0.192 0.271,0.344 0.47,0.457 0.2,0.116 0.407,0.172 0.623,0.172 0.373,0 0.654,-0.119 0.845,-0.357 0.191,-0.237 0.358,-0.576 0.503,-1.02 l 2.195,-6.383 2.08,5.936 c 0.164,0.48 0.313,0.857 0.446,1.131 0.133,0.271 0.273,0.455 0.422,0.549 0.149,0.095 0.36,0.144 0.632,0.144 0.197,0 0.385,-0.053 0.566,-0.158 0.18,-0.104 0.319,-0.244 0.417,-0.422 C 6.219,10.109 6.269,9.924 6.269,9.727 6.243,9.607 6.203,9.436 6.145,9.213 6.087,8.992 6.019,8.766 5.937,8.539 L 2.555,-0.312 C 2.263,-1.092 1.979,-1.701 1.7,-2.145 1.421,-2.588 1.053,-2.93 0.593,-3.166 0.134,-3.404 -0.485,-3.523 -1.264,-3.523 c -0.759,0 -1.329,0.082 -1.708,0.246 -0.382,0.166 -0.57,0.466 -0.57,0.904 0,0.297 0.089,0.527 0.271,0.687 0.179,0.163 0.447,0.245 0.801,0.245 0.139,0 0.276,-0.02 0.409,-0.059 0.165,-0.037 0.307,-0.057 0.427,-0.057 0.297,0 0.532,0.043 0.703,0.133 0.171,0.088 0.324,0.242 0.461,0.461 C -0.334,-0.746 -0.177,-0.424 0,0"
               style="fill:#333332;fill-opacity:1;fill-rule:nonzero;stroke:none"
               id="path90"
               inkscape:connector-curvature="0" /></g><g
             transform="translate(416.7031,27.2305)"
             id="g96"><path
               d="m 0,0 h 0.618 v 0.777 c 0,0.815 0.1,1.457 0.307,1.938 0.204,0.478 0.555,0.826 1.047,1.045 0.49,0.217 1.163,0.326 2.016,0.326 1.52,0 2.273,-0.367 2.273,-1.113 C 6.261,2.734 6.182,2.527 6.021,2.357 5.866,2.188 5.678,2.102 5.463,2.102 5.363,2.102 5.185,2.119 4.936,2.16 4.698,2.193 4.483,2.217 4.312,2.217 3.845,2.217 3.546,2.076 3.407,1.801 3.28,1.525 3.212,1.133 3.212,0.617 V 0 h 0.633 c 0.991,0 1.481,-0.297 1.481,-0.896 0,-0.418 -0.127,-0.69 -0.392,-0.805 C 4.672,-1.814 4.31,-1.871 3.845,-1.871 H 3.212 v -6.871 c 0,-0.512 -0.12,-0.901 -0.369,-1.168 -0.241,-0.274 -0.554,-0.406 -0.943,-0.406 -0.367,0 -0.671,0.132 -0.918,0.406 -0.244,0.267 -0.364,0.656 -0.364,1.168 v 6.871 h -0.714 c -0.388,0 -0.682,0.084 -0.893,0.262 -0.209,0.17 -0.315,0.398 -0.315,0.677 C -1.304,-0.309 -0.869,0 0,0"
               style="fill:#333332;fill-opacity:1;fill-rule:nonzero;stroke:none"
               id="path94"
               inkscape:connector-curvature="0" /></g><g
             transform="translate(425.1924,20.6563)"
             id="g100"><path
               d="m 0,0 v -2.168 c 0,-0.523 -0.133,-0.92 -0.374,-1.18 -0.247,-0.265 -0.559,-0.394 -0.938,-0.394 -0.381,0 -0.687,0.131 -0.926,0.4 -0.237,0.264 -0.361,0.656 -0.361,1.174 v 7.223 c 0,1.166 0.42,1.748 1.261,1.748 0.434,0 0.743,-0.135 0.934,-0.408 0.189,-0.274 0.295,-0.674 0.317,-1.208 0.308,0.534 0.624,0.934 0.948,1.208 0.332,0.273 0.763,0.408 1.31,0.408 0.549,0 1.072,-0.135 1.585,-0.408 C 4.271,6.121 4.527,5.758 4.527,5.311 4.527,4.996 4.417,4.73 4.201,4.529 3.981,4.32 3.747,4.217 3.495,4.217 3.396,4.217 3.164,4.279 2.803,4.396 2.438,4.51 2.114,4.57 1.84,4.57 1.46,4.57 1.147,4.467 0.908,4.271 0.666,4.066 0.478,3.775 0.344,3.385 0.215,2.99 0.125,2.52 0.071,1.98 0.022,1.439 0,0.777 0,0"
               style="fill:#333332;fill-opacity:1;fill-rule:nonzero;stroke:none"
               id="path98"
               inkscape:connector-curvature="0" /></g><g
             transform="translate(432.0391,23.0234)"
             id="g104"><path
               d="M 0,0 H 4.701 C 4.639,0.885 4.403,1.549 3.987,1.986 3.569,2.428 3.028,2.646 2.347,2.646 1.701,2.646 1.17,2.426 0.755,1.977 0.341,1.531 0.087,0.873 0,0 M 5.074,-1.475 H 0 C 0.009,-2.063 0.124,-2.586 0.354,-3.033 0.59,-3.48 0.895,-3.82 1.279,-4.051 c 0.385,-0.226 0.804,-0.34 1.269,-0.34 0.31,0 0.593,0.034 0.849,0.112 0.254,0.07 0.505,0.185 0.746,0.341 0.242,0.153 0.46,0.319 0.664,0.5 0.202,0.174 0.466,0.417 0.79,0.719 0.134,0.114 0.324,0.174 0.568,0.174 0.269,0 0.481,-0.074 0.649,-0.223 C 6.98,-2.914 7.058,-3.117 7.058,-3.385 7.058,-3.619 6.969,-3.893 6.79,-4.203 6.603,-4.521 6.327,-4.82 5.954,-5.109 5.58,-5.395 5.115,-5.637 4.557,-5.824 3.997,-6.014 3.351,-6.109 2.625,-6.109 c -1.671,0 -2.964,0.472 -3.887,1.422 -0.924,0.951 -1.391,2.242 -1.391,3.867 0,0.767 0.117,1.478 0.347,2.134 0.225,0.659 0.558,1.217 0.999,1.688 0.436,0.471 0.97,0.828 1.613,1.078 0.637,0.25 1.346,0.375 2.128,0.375 1.01,0 1.88,-0.215 2.606,-0.646 C 5.764,3.387 6.313,2.832 6.669,2.154 7.03,1.475 7.211,0.787 7.211,0.08 7.211,-0.568 7.022,-0.99 6.649,-1.186 6.276,-1.379 5.752,-1.475 5.074,-1.475"
               style="fill:#333332;fill-opacity:1;fill-rule:nonzero;stroke:none"
               id="path102"
               inkscape:connector-curvature="0" /></g><g
             transform="translate(442.8271,23.0234)"
             id="g108"><path
               d="M 0,0 H 4.701 C 4.638,0.885 4.397,1.549 3.986,1.986 3.565,2.428 3.024,2.646 2.344,2.646 1.698,2.646 1.168,2.426 0.751,1.977 0.338,1.531 0.084,0.873 0,0 M 5.073,-1.475 H 0 c 0.006,-0.588 0.125,-1.111 0.354,-1.558 0.232,-0.447 0.54,-0.787 0.921,-1.018 0.383,-0.226 0.806,-0.34 1.272,-0.34 0.307,0 0.593,0.034 0.845,0.112 0.258,0.07 0.505,0.185 0.75,0.341 0.242,0.153 0.46,0.319 0.664,0.5 0.199,0.174 0.464,0.417 0.788,0.719 0.135,0.114 0.326,0.174 0.568,0.174 0.269,0 0.484,-0.074 0.65,-0.223 0.166,-0.146 0.241,-0.349 0.241,-0.617 0,-0.234 -0.087,-0.508 -0.274,-0.818 C 6.603,-4.521 6.324,-4.82 5.949,-5.109 5.579,-5.395 5.109,-5.637 4.554,-5.824 3.996,-6.014 3.346,-6.109 2.619,-6.109 c -1.667,0 -2.959,0.472 -3.887,1.422 -0.923,0.951 -1.388,2.242 -1.388,3.867 0,0.767 0.116,1.478 0.347,2.134 0.227,0.659 0.559,1.217 0.997,1.688 0.435,0.471 0.972,0.828 1.614,1.078 0.637,0.25 1.35,0.375 2.129,0.375 1.008,0 1.878,-0.215 2.613,-0.646 C 5.764,3.387 6.31,2.832 6.665,2.154 7.024,1.475 7.21,0.787 7.21,0.08 7.21,-0.568 7.019,-0.99 6.648,-1.186 6.273,-1.379 5.749,-1.475 5.073,-1.475"
               style="fill:#333332;fill-opacity:1;fill-rule:nonzero;stroke:none"
               id="path106"
               inkscape:connector-curvature="0" /></g><g
             transform="translate(458.6641,22.2324)"
             id="g112"><path
               d="m 0,0 c 0,0.686 -0.106,1.273 -0.314,1.764 -0.209,0.492 -0.499,0.867 -0.867,1.127 -0.367,0.263 -0.782,0.396 -1.232,0.396 -0.714,0 -1.318,-0.283 -1.809,-0.844 -0.492,-0.566 -0.739,-1.394 -0.739,-2.492 0,-1.027 0.244,-1.834 0.735,-2.406 0.488,-0.574 1.086,-0.859 1.813,-0.859 0.429,0 0.83,0.126 1.197,0.373 0.371,0.252 0.665,0.627 0.884,1.127 C -0.111,-1.312 0,-0.707 0,0 M -5.084,3.768 V 3.457 C -4.598,4.059 -4.09,4.5 -3.56,4.781 -3.041,5.066 -2.441,5.209 -1.777,5.209 -0.982,5.209 -0.242,5 0.43,4.592 1.101,4.178 1.628,3.576 2.019,2.785 2.408,1.99 2.604,1.055 2.604,-0.029 2.604,-0.824 2.492,-1.561 2.269,-2.23 2.045,-2.898 1.731,-3.457 1.34,-3.91 0.946,-4.359 0.484,-4.711 -0.05,-4.955 c -0.542,-0.242 -1.111,-0.363 -1.727,-0.363 -0.739,0 -1.365,0.148 -1.866,0.447 -0.503,0.291 -0.982,0.732 -1.441,1.305 v -3.893 c 0,-1.135 -0.416,-1.709 -1.244,-1.709 -0.49,0 -0.809,0.147 -0.972,0.439 -0.151,0.299 -0.233,0.723 -0.233,1.292 V 3.756 c 0,0.494 0.106,0.859 0.32,1.107 0.215,0.239 0.512,0.364 0.885,0.364 0.369,0 0.666,-0.125 0.895,-0.373 0.236,-0.254 0.349,-0.612 0.349,-1.086"
               style="fill:#333332;fill-opacity:1;fill-rule:nonzero;stroke:none"
               id="path110"
               inkscape:connector-curvature="0" /></g><g
             transform="translate(465.1641,25.9883)"
             id="g116"><path
               d="m 0,0 v -7.502 c 0,-0.516 -0.124,-0.908 -0.37,-1.172 -0.25,-0.269 -0.561,-0.4 -0.942,-0.4 -0.38,0 -0.684,0.133 -0.927,0.406 -0.234,0.275 -0.356,0.664 -0.356,1.166 v 7.428 c 0,0.51 0.122,0.894 0.356,1.154 0.243,0.264 0.547,0.391 0.927,0.391 0.381,0 0.692,-0.127 0.942,-0.391 C -0.124,0.82 0,0.457 0,0 m -1.284,2.678 c -0.362,0 -0.669,0.115 -0.923,0.336 -0.26,0.222 -0.388,0.531 -0.388,0.935 0,0.369 0.131,0.67 0.397,0.91 0.261,0.235 0.566,0.356 0.914,0.356 0.34,0 0.636,-0.106 0.893,-0.319 C -0.131,4.678 0,4.361 0,3.949 0,3.551 -0.127,3.238 -0.378,3.014 -0.632,2.793 -0.933,2.678 -1.284,2.678"
               style="fill:#333332;fill-opacity:1;fill-rule:nonzero;stroke:none"
               id="path114"
               inkscape:connector-curvature="0" /></g><g
             transform="translate(473.5234,18.0977)"
             id="g120"><path
               d="M 0,0 -2.284,3.766 -3.692,2.438 V 0.371 c 0,-0.498 -0.133,-0.881 -0.397,-1.148 -0.257,-0.274 -0.566,-0.407 -0.906,-0.407 -0.399,0 -0.715,0.131 -0.941,0.401 -0.226,0.263 -0.343,0.656 -0.343,1.174 v 11.062 c 0,0.574 0.114,1.012 0.331,1.315 0.222,0.304 0.545,0.451 0.953,0.451 0.399,0 0.713,-0.137 0.949,-0.41 0.234,-0.272 0.354,-0.674 0.354,-1.204 V 5.312 l 2.916,3.063 C -0.414,8.752 -0.144,9.016 0.051,9.154 0.24,9.293 0.47,9.361 0.74,9.361 1.066,9.361 1.334,9.258 1.556,9.053 1.767,8.848 1.876,8.588 1.876,8.279 1.876,7.9 1.522,7.391 0.821,6.758 L -0.556,5.496 2.104,1.312 C 2.297,1 2.442,0.77 2.527,0.607 2.611,0.447 2.657,0.287 2.657,0.145 2.657,-0.268 2.543,-0.59 2.316,-0.83 2.092,-1.066 1.793,-1.184 1.431,-1.184 c -0.317,0 -0.564,0.08 -0.734,0.256 C 0.527,-0.756 0.29,-0.445 0,0"
               style="fill:#333332;fill-opacity:1;fill-rule:nonzero;stroke:none"
               id="path118"
               inkscape:connector-curvature="0" /></g><g
             transform="translate(479.1592,16.9141)"
             id="g124"><path
               d="m 0,0 c -0.392,0 -0.728,0.125 -1.014,0.381 -0.284,0.248 -0.428,0.605 -0.428,1.064 0,0.385 0.137,0.719 0.41,0.994 0.274,0.28 0.607,0.42 1.008,0.42 0.397,0 0.735,-0.14 1.022,-0.412 C 1.277,2.172 1.42,1.834 1.42,1.445 1.42,0.992 1.277,0.637 0.998,0.385 0.711,0.125 0.379,0 0,0"
               style="fill:#333332;fill-opacity:1;fill-rule:nonzero;stroke:none"
               id="path122"
               inkscape:connector-curvature="0" /></g><g
             transform="translate(492.0576,20.123)"
             id="g128"><path
               d="m 0,0 c 0,-0.32 -0.097,-0.668 -0.291,-1.033 -0.191,-0.371 -0.488,-0.719 -0.886,-1.051 -0.394,-0.332 -0.891,-0.602 -1.495,-0.803 -0.6,-0.203 -1.28,-0.306 -2.03,-0.306 -1.607,0 -2.859,0.468 -3.758,1.4 -0.895,0.936 -1.346,2.189 -1.346,3.76 0,1.068 0.204,2.006 0.619,2.824 0.408,0.814 1.004,1.447 1.782,1.895 0.779,0.447 1.716,0.669 2.794,0.669 0.673,0 1.288,-0.097 1.852,-0.294 0.561,-0.196 1.032,-0.452 1.425,-0.76 0.387,-0.315 0.686,-0.643 0.89,-0.992 0.207,-0.352 0.307,-0.68 0.307,-0.987 0,-0.308 -0.113,-0.572 -0.342,-0.787 -0.236,-0.215 -0.516,-0.324 -0.839,-0.324 -0.219,0 -0.398,0.057 -0.541,0.166 -0.144,0.111 -0.305,0.289 -0.479,0.541 -0.317,0.478 -0.646,0.842 -0.996,1.08 -0.343,0.242 -0.78,0.361 -1.313,0.361 -0.762,0 -1.384,-0.297 -1.854,-0.896 -0.468,-0.596 -0.703,-1.42 -0.703,-2.455 0,-0.488 0.062,-0.94 0.183,-1.348 0.117,-0.406 0.291,-0.756 0.52,-1.043 0.23,-0.287 0.504,-0.506 0.826,-0.654 0.324,-0.154 0.681,-0.227 1.064,-0.227 0.521,0 0.966,0.121 1.337,0.362 0.376,0.24 0.702,0.607 0.986,1.101 0.158,0.291 0.327,0.518 0.509,0.684 0.182,0.164 0.409,0.25 0.675,0.25 0.317,0 0.581,-0.123 0.787,-0.363 C -0.106,0.529 0,0.271 0,0"
               style="fill:#333332;fill-opacity:1;fill-rule:nonzero;stroke:none"
               id="path126"
               inkscape:connector-curvature="0" /></g><g
             transform="translate(500.6445,22.1836)"
             id="g132"><path
               d="M 0,0 C 0,1.059 -0.234,1.881 -0.698,2.469 -1.161,3.064 -1.788,3.357 -2.572,3.357 -3.08,3.357 -3.527,3.225 -3.915,2.963 -4.302,2.701 -4.596,2.314 -4.805,1.799 -5.014,1.285 -5.12,0.686 -5.12,0 c 0,-0.678 0.102,-1.268 0.309,-1.773 0.208,-0.51 0.502,-0.897 0.886,-1.166 0.386,-0.266 0.835,-0.405 1.353,-0.405 0.784,0 1.411,0.297 1.874,0.893 C -0.234,-1.861 0,-1.041 0,0 m 2.604,0 c 0,-0.77 -0.123,-1.484 -0.356,-2.139 -0.247,-0.652 -0.592,-1.213 -1.05,-1.677 -0.455,-0.469 -1.002,-0.829 -1.632,-1.08 -0.639,-0.249 -1.349,-0.375 -2.138,-0.375 -0.785,0 -1.493,0.126 -2.121,0.382 -0.623,0.248 -1.171,0.614 -1.626,1.082 -0.461,0.477 -0.809,1.034 -1.052,1.676 -0.23,0.645 -0.351,1.356 -0.351,2.131 0,0.787 0.124,1.506 0.359,2.158 0.242,0.655 0.589,1.213 1.039,1.674 0.451,0.461 0.993,0.816 1.631,1.07 0.643,0.248 1.349,0.373 2.121,0.373 0.784,0 1.498,-0.125 2.138,-0.38 C 0.204,4.643 0.749,4.279 1.21,3.814 1.668,3.34 2.013,2.785 2.25,2.143 2.483,1.492 2.604,0.783 2.604,0"
               style="fill:#333332;fill-opacity:1;fill-rule:nonzero;stroke:none"
               id="path130"
               inkscape:connector-curvature="0" /></g><g
             transform="translate(513.1396,21.9941)"
             id="g136"><path
               d="m 0,0 v -3.447 c 0,-0.547 -0.12,-0.951 -0.369,-1.227 -0.25,-0.273 -0.571,-0.408 -0.978,-0.408 -0.392,0 -0.714,0.135 -0.951,0.408 -0.247,0.276 -0.372,0.68 -0.372,1.227 v 4.131 c 0,0.654 -0.02,1.162 -0.063,1.525 -0.046,0.354 -0.168,0.654 -0.363,0.883 -0.196,0.234 -0.508,0.351 -0.93,0.351 -0.851,0 -1.408,-0.291 -1.677,-0.88 C -5.971,1.986 -6.109,1.148 -6.109,0.055 v -3.502 c 0,-0.537 -0.122,-0.946 -0.362,-1.223 -0.249,-0.273 -0.567,-0.412 -0.965,-0.412 -0.395,0 -0.716,0.139 -0.966,0.412 -0.252,0.277 -0.376,0.686 -0.376,1.223 v 7.42 c 0,0.488 0.111,0.859 0.335,1.111 0.229,0.256 0.526,0.381 0.889,0.381 0.357,0 0.652,-0.123 0.892,-0.356 0.236,-0.238 0.354,-0.566 0.354,-0.984 V 3.881 c 0.454,0.535 0.935,0.931 1.445,1.18 0.516,0.259 1.082,0.386 1.713,0.386 0.651,0 1.211,-0.131 1.677,-0.39 0.47,-0.26 0.854,-0.655 1.161,-1.176 0.439,0.527 0.909,0.922 1.41,1.18 0.5,0.257 1.052,0.386 1.662,0.386 0.706,0 1.321,-0.142 1.834,-0.42 C 5.104,4.75 5.486,4.348 5.741,3.832 5.962,3.359 6.071,2.623 6.071,1.615 V -3.447 C 6.071,-3.994 5.949,-4.398 5.704,-4.674 5.458,-4.947 5.129,-5.082 4.725,-5.082 4.33,-5.082 4.011,-4.943 3.76,-4.67 3.51,-4.393 3.384,-3.984 3.384,-3.447 V 0.914 C 3.384,1.473 3.36,1.918 3.314,2.252 3.268,2.59 3.138,2.873 2.932,3.1 2.72,3.326 2.401,3.443 1.979,3.443 1.637,3.443 1.312,3.336 1.005,3.135 0.698,2.938 0.458,2.658 0.284,2.322 0.099,1.885 0,1.109 0,0"
               style="fill:#333332;fill-opacity:1;fill-rule:nonzero;stroke:none"
               id="path134"
               inkscape:connector-curvature="0" /></g><g
             transform="translate(392.4351,22.8125)"
             id="g140"><path
               d="M 0,0 C -0.002,0.004 -0.002,0.01 -0.002,0.018 -0.002,0.01 -0.002,0.004 0,0"
               style="fill:#333332;fill-opacity:1;fill-rule:nonzero;stroke:none"
               id="path138"
               inkscape:connector-curvature="0" /></g><g
             transform="translate(392.5659,21.9824)"
             id="g144"><path
               d="M 0,0 H 0.003 C -0.047,0.236 -0.085,0.471 -0.116,0.703 -0.085,0.469 -0.047,0.234 0,0"
               style="fill:#333332;fill-opacity:1;fill-rule:nonzero;stroke:none"
               id="path142"
               inkscape:connector-curvature="0" /></g><g
             transform="translate(393.4243,19.5762)"
             id="g148"><path
               d="M 0,0 C -0.006,0.01 -0.011,0.021 -0.017,0.033 -0.011,0.021 -0.006,0.01 0,0"
               style="fill:#333332;fill-opacity:1;fill-rule:nonzero;stroke:none"
               id="path146"
               inkscape:connector-curvature="0" /></g><g
             transform="translate(393.3423,19.7363)"
             id="g152"><path
               d="M 0,0 C -0.022,0.045 -0.044,0.09 -0.065,0.135 -0.044,0.088 -0.022,0.045 0,0"
               style="fill:#333332;fill-opacity:1;fill-rule:nonzero;stroke:none"
               id="path150"
               inkscape:connector-curvature="0" /></g><g
             transform="translate(392.8071,21.0566)"
             id="g156"><path
               d="M 0,0 C 0.127,-0.4 0.28,-0.789 0.457,-1.158 0.277,-0.781 0.127,-0.393 0.003,0 Z"
               style="fill:#333332;fill-opacity:1;fill-rule:nonzero;stroke:none"
               id="path154"
               inkscape:connector-curvature="0" /></g><g
             transform="translate(402.4727,32.748)"
             id="g160"><path
               d="m 0,0 c 0.501,0 0.871,-0.039 1.295,-0.111 l 0.12,0.763 c 0,0 -1.171,0.36 -2.71,0.235 l -0.121,0.414 c 0.479,0.101 0.838,0.527 0.838,1.035 0,0.582 -0.475,1.053 -1.058,1.053 -0.583,0 -1.055,-0.471 -1.055,-1.053 0,-0.508 0.358,-0.934 0.836,-1.035 L -1.722,0.838 C -3.356,0.613 -4.657,-0.023 -4.657,-0.023 l 0.231,-0.706 c 0.988,0.329 1.846,0.53 2.624,0.614 C -1.041,-0.035 -0.467,0 0,0"
               style="fill:#333332;fill-opacity:1;fill-rule:nonzero;stroke:none"
               id="path158"
               inkscape:connector-curvature="0" /></g><g
             transform="translate(393.4048,28.8906)"
             id="g164"><path
               d="M 0,0 0.006,0.008 C 0.044,0.057 0.082,0.104 0.119,0.15 l -0.313,0.225 -0.488,0.357 c -0.027,-0.039 -0.795,-0.744 -1.401,-2.048 -0.025,0.041 -0.056,0.082 -0.09,0.119 -0.181,0.199 -0.435,0.301 -0.758,0.295 h -0.015 c -0.2,0 -0.337,0.066 -0.427,0.146 0.09,0.113 0.144,0.256 0.144,0.414 0,0.367 -0.3,0.668 -0.67,0.668 -0.369,0 -0.668,-0.301 -0.668,-0.668 0,-0.371 0.299,-0.67 0.668,-0.67 0.058,0 0.113,0.01 0.167,0.022 0.165,-0.184 0.425,-0.342 0.808,-0.334 0.196,0.002 0.341,-0.049 0.437,-0.156 0.111,-0.122 0.149,-0.295 0.16,-0.428 -10e-4,-0.002 -10e-4,-0.004 -0.003,-0.004 -0.436,-1.19 -0.311,-2.67 -0.311,-2.67 l 1.057,-0.043 c 0.022,0.539 0.099,1.482 0.372,2.23 C -0.686,-0.945 -0.027,-0.039 0,0"
               style="fill:#333332;fill-opacity:1;fill-rule:nonzero;stroke:none"
               id="path162"
               inkscape:connector-curvature="0" /></g><g
             transform="translate(411.6719,31.8652)"
             id="g168"><path
               d="m 0,0 c -0.368,0 -0.669,-0.299 -0.669,-0.67 0,-0.057 0.009,-0.111 0.023,-0.164 C -0.829,-1 -0.988,-1.262 -0.982,-1.645 -0.979,-1.842 -1.03,-1.984 -1.137,-2.082 -1.222,-2.156 -1.328,-2.197 -1.433,-2.223 -2.22,-1.119 -3.188,-0.447 -3.188,-0.447 L -3.947,-1.26 c 0.573,-0.521 1.159,-1.176 1.728,-1.99 0.394,-0.564 0.799,-1.291 1.136,-2.016 l 1.024,0.487 c 0,0 -0.467,1.156 -1.126,2.191 0.115,0.041 0.23,0.104 0.331,0.193 0.201,0.18 0.299,0.436 0.293,0.758 -0.001,0.207 0.067,0.348 0.149,0.442 0.114,-0.088 0.257,-0.143 0.412,-0.143 0.371,0 0.67,0.299 0.67,0.668 C 0.67,-0.299 0.371,0 0,0"
               style="fill:#333332;fill-opacity:1;fill-rule:nonzero;stroke:none"
               id="path166"
               inkscape:connector-curvature="0" /></g><g
             transform="translate(409.0146,22.6621)"
             id="g172"><path
               d="m 0,0 c -1.409,-0.686 -3.729,-1.594 -6.781,-2.02 -1.198,-0.166 -2.36,-0.226 -3.428,-0.226 -1.391,0 -2.62,0.103 -3.563,0.223 -1.076,0.134 -1.917,0.3 -2.432,0.418 0.123,-0.393 0.273,-0.782 0.454,-1.159 0.003,-0.009 0.007,-0.021 0.012,-0.027 0.022,-0.045 0.043,-0.09 0.066,-0.135 0.021,-0.043 0.043,-0.086 0.065,-0.127 0.006,-0.011 0.011,-0.023 0.017,-0.033 0.302,-0.57 0.666,-1.094 1.08,-1.549 1.44,-1.574 2.907,-1.824 2.921,-1.826 l 0.023,-0.002 0.022,-0.008 c 0.013,-0.006 1.314,-0.425 3.291,-0.425 1.945,0 3.855,0.392 5.674,1.167 1.348,0.69 2.622,1.737 3.254,2.67 0.488,0.723 0.841,1.493 1.05,2.293 C 1.836,-0.34 1.924,0.342 1.872,1.061 1.476,0.793 0.849,0.414 0,0"
               style="fill:#333332;fill-opacity:1;fill-rule:nonzero;stroke:none"
               id="path170"
               inkscape:connector-curvature="0" /></g><g
             transform="translate(397.8853,29.293)"
             id="g176"><path
               d="m 0,0 c 1.557,0 2.817,-1.262 2.817,-2.818 0,-1.555 -1.26,-2.815 -2.817,-2.815 -1.555,0 -2.816,1.26 -2.816,2.815 C -2.816,-1.262 -1.555,0 0,0 m 8.242,-0.07 c 0.961,0 1.743,-0.782 1.743,-1.742 0,-0.963 -0.782,-1.745 -1.743,-1.745 -0.962,0 -1.742,0.782 -1.742,1.745 0,0.96 0.78,1.742 1.742,1.742 M -4.028,-0.736 C -4.069,-0.797 -4.68,-1.662 -5.163,-2.99 -5.525,-3.984 -5.509,-5.434 -5.509,-5.449 v -0.004 c 0,-0.34 0.019,-0.676 0.057,-1.01 0,-0.008 0,-0.014 0.002,-0.017 0.004,-0.043 0.011,-0.084 0.015,-0.127 0.03,-0.233 0.069,-0.467 0.119,-0.704 0.7,-0.177 4.878,-1.152 9.548,-0.501 2.927,0.408 5.149,1.273 6.499,1.927 1.121,0.543 1.842,1.035 2.12,1.239 C 12.574,-3.619 11.809,-2.006 11.108,-1 9.103,1.865 6.941,2.6 5.831,2.783 5.407,2.852 5.068,2.893 4.587,2.893 4.14,2.893 3.585,2.855 2.844,2.777 2.101,2.701 1.272,2.506 0.312,2.182 -1.036,1.73 -2.255,1.023 -3.215,0.135 L -3.248,0.104 c -0.142,-0.131 -0.439,-0.407 -0.78,-0.84"
               style="fill:#333332;fill-opacity:1;fill-rule:nonzero;stroke:none"
               id="path174"
               inkscape:connector-curvature="0" /></g></g></g></g><g
       id="g182"
       transform="translate(215.3701,166.3545)"
       style="fill:#abc837"
       inkscape:export-xdpi="96.031494"
       inkscape:export-ydpi="96.031494"><path
         d="m 0,0 c -2.856,0 -5.407,-1.354 -7.497,-2.354 h -0.024 c -2.091,-2 -4.283,-3.433 -5.982,-2.716 -0.45,0.189 -0.81,0.542 -1.098,1.113 0.454,13.931 1.87,24.69 2.054,26.05 -1.081,-0.131 -10.682,-1.295 -23.454,-1.777 -1.766,0.287 -3.644,0.829 -4.094,1.895 -0.716,1.696 0.387,3.845 2.001,5.896 l -0.041,0.012 c 1.716,2.061 2.733,4.712 2.733,7.603 0,6.562 -5.353,11.888 -11.915,11.888 -6.564,0 -11.78,-5.304 -11.78,-11.867 0,-2.856 0.727,-5.408 2.727,-7.498 v -0.023 c 1,-2.092 3.06,-4.284 2.344,-5.982 -0.45,-1.065 -2.376,-1.628 -4.108,-1.925 -12.579,0.516 -22.088,1.71 -23.3,1.868 0.04,-0.325 1.361,-11.172 1.813,-25.503 -0.328,-0.995 -0.802,-1.811 -1.456,-2.087 -1.697,-0.715 -3.882,0.386 -5.934,2.002 l -0.016,-0.043 c -2.06,1.715 -4.714,2.727 -7.606,2.727 -6.561,0 -11.889,-5.358 -11.889,-11.921 0,-6.564 5.303,-12.102 11.867,-12.102 2.855,0 5.406,1.39 7.496,2.39 h 0.024 c 2.091,2 4.309,3.396 6.007,2.68 0.664,-0.28 1.135,-1.03 1.47,-2.024 -0.471,-13.731 -1.812,-24.193 -1.946,-25.225 0.214,0.03 10.832,1.522 24.964,2.045 1.213,-0.332 2.259,-0.824 2.579,-1.583 0.716,-1.697 -0.384,-3.87 -2,-5.923 l 0.044,-0.012 c -1.714,-2.06 -2.724,-4.71 -2.724,-7.602 0,-6.562 5.365,-11.89 11.928,-11.89 6.564,0 11.96,5.305 11.96,11.868 0,2.857 -0.517,5.408 -2.517,7.498 v 0.024 c -2,2.091 -3.268,4.308 -2.553,6.006 0.328,0.778 1.402,1.291 2.622,1.629 13.438,-0.504 23.67,-1.864 24.757,-2.013 -0.154,1.129 -1.614,12.127 -2.065,26.34 0.28,0.555 0.63,0.978 1.066,1.163 1.696,0.716 3.851,-0.386 5.901,-2.001 l 0.016,0.043 c 2.061,-1.716 4.712,-2.729 7.604,-2.729 6.562,0 11.889,5.447 11.889,12.009 C 11.867,-5.487 6.562,0 0,0"
         style="fill:#abc837;fill-opacity:1;fill-rule:nonzero;stroke:none"
         id="path184"
         inkscape:connector-curvature="0" /></g><g
       id="g186"
       transform="translate(133.7529,119.373)"><path
         d="M 0,0 C 0,0 0.005,0.038 0.013,0.094 0.01,0.094 0,0.092 0,0.092 Z"
         style="fill:#333332;fill-opacity:1;fill-rule:nonzero;stroke:none"
         id="path188"
         inkscape:connector-curvature="0" /></g><g
       id="g190"
       transform="translate(133.7529,188.5566)"><path
         d="M 0,0 C 0,0 0.054,-0.008 0.141,-0.02 0.14,-0.014 0.138,0 0.138,0 Z"
         style="fill:#333332;fill-opacity:1;fill-rule:nonzero;stroke:none"
         id="path192"
         inkscape:connector-curvature="0" /></g><g
       id="g194"
       transform="translate(671.8262,505.4258)"><path
         d="M 0,0 C 0,0.006 -0.004,0.016 -0.003,0.021 -0.022,0.02 -0.064,0.014 -0.089,0.012 -0.061,0.008 -0.03,0.004 0,0"
         style="fill:#333332;fill-opacity:1;fill-rule:nonzero;stroke:none"
         id="path196"
         inkscape:connector-curvature="0" /></g><g
       id="g198"
       transform="translate(647,430.8564)"><path
         d="m 0,0 c -2,2.091 -3.268,4.308 -2.553,6.006 0.328,0.778 1.403,1.291 2.622,1.629 11.507,-0.432 20.644,-1.489 23.72,-1.878 0.214,1.669 1.47,11.83 1.923,25.043 -0.335,0.994 -0.806,1.744 -1.47,2.024 -1.698,0.716 -3.916,-0.68 -6.007,-2.68 h -0.024 c -2.09,-1 -4.641,-2.39 -7.496,-2.39 -6.564,0 -11.867,5.538 -11.867,12.102 0,6.563 5.328,11.921 11.889,11.921 2.892,0 5.546,-1.012 7.606,-2.727 l 0.016,0.043 c 2.052,-1.615 4.237,-2.717 5.934,-2.002 0.654,0.276 1.128,1.092 1.456,2.087 -0.423,13.411 -1.606,23.77 -1.789,25.311 -2.804,-0.324 -11.497,-1.257 -22.591,-1.675 -1.765,0.287 -3.643,0.829 -4.094,1.895 -0.715,1.696 0.387,3.845 2.001,5.896 l -0.041,0.012 c 1.716,2.061 2.733,4.712 2.733,7.603 0,6.562 -5.353,11.888 -11.915,11.888 -6.564,0 -11.78,-5.304 -11.78,-11.867 0,-2.856 0.727,-5.408 2.727,-7.498 V 80.72 c 1,-2.092 3.061,-4.283 2.344,-5.982 -0.449,-1.065 -2.376,-1.628 -4.108,-1.925 -12.579,0.516 -22.088,1.71 -23.299,1.868 0.04,-0.325 1.36,-11.172 1.812,-25.503 -0.328,-0.995 -0.802,-1.811 -1.456,-2.087 -1.697,-0.715 -3.882,0.387 -5.934,2.002 l -0.016,-0.043 c -2.06,1.715 -4.714,2.727 -7.606,2.727 -6.561,0 -11.889,-5.358 -11.889,-11.921 0,-6.564 5.303,-12.102 11.867,-12.102 2.855,0 5.406,1.39 7.496,2.39 h 0.024 c 2.091,2 4.309,3.396 6.007,2.68 0.664,-0.28 1.135,-1.03 1.47,-2.024 -0.471,-13.731 -1.812,-24.193 -1.946,-25.225 0.214,0.03 10.832,1.522 24.964,2.045 1.213,-0.332 2.259,-0.824 2.58,-1.583 0.715,-1.697 -0.385,-3.87 -2,-5.923 l 0.044,-0.011 c -1.715,-2.061 -2.725,-4.711 -2.725,-7.603 0,-6.562 5.365,-11.89 11.929,-11.89 6.563,0 11.96,5.305 11.96,11.869 C 2.518,-4.665 2,-2.114 0,-0.024 Z"
         style="fill:#d09500;fill-opacity:1;fill-rule:nonzero;stroke:none"
         id="path200"
         inkscape:connector-curvature="0" /></g><g
       id="g202"
       transform="translate(526.8652,163.6436)"
       inkscape:export-xdpi="96.031494"
       inkscape:export-ydpi="96.031494"><path
         d="m 0,0 c -2.855,0 -5.406,-0.644 -7.496,-2.644 h -0.025 c -2.09,-1 -4.283,-3.142 -5.981,-2.425 -0.45,0.189 -0.81,0.686 -1.098,1.257 0.453,13.931 1.87,24.762 2.054,26.123 -1.082,-0.132 -10.683,-1.258 -23.454,-1.741 -1.766,0.286 -3.644,0.847 -4.094,1.913 -0.716,1.698 0.386,3.854 2.001,5.907 l -0.041,0.015 c 1.716,2.06 2.733,4.713 2.733,7.604 0,6.562 -5.353,11.89 -11.915,11.89 -6.565,0 -12.027,-5.303 -12.027,-11.867 0,-2.855 0.478,-5.406 2.478,-7.496 v -0.024 c 2,-2.091 3.307,-4.283 2.592,-5.982 -0.451,-1.064 -2.252,-1.627 -3.983,-1.924 -12.58,0.515 -22.028,1.709 -23.24,1.868 0.041,-0.325 1.392,-11.174 1.844,-25.504 -0.328,-0.996 -0.786,-1.811 -1.44,-2.086 -1.697,-0.716 -3.873,0.386 -5.926,2 l -0.012,-0.042 c -2.061,1.716 -4.713,2.727 -7.604,2.727 -6.562,0 -11.888,-5.358 -11.888,-11.921 0,-6.563 5.303,-11.891 11.867,-11.891 2.856,0 5.407,0.599 7.497,2.599 h 0.024 c 2.091,2 4.309,3.187 6.007,2.47 0.664,-0.28 1.135,-1.134 1.469,-2.129 -0.47,-13.73 -1.811,-24.245 -1.946,-25.278 0.215,0.031 67.978,0.153 69.064,0.005 -0.153,1.128 -1.615,12.122 -2.067,26.335 0.281,0.554 0.629,0.976 1.065,1.16 1.697,0.717 3.851,-0.387 5.902,-2.002 l 0.014,0.043 c 2.061,-1.717 4.713,-2.729 7.605,-2.729 6.561,0 11.889,5.301 11.889,11.864 C 11.868,-5.341 6.563,0 0,0"
         style="fill:#ff5e3c;fill-opacity:1;fill-rule:nonzero;stroke:none"
         id="path204"
         inkscape:connector-curvature="0" /></g><g
       id="g206"
       transform="translate(445.248,116.9521)"><path
         d="M 0,0 C 0,0 0.006,0.038 0.013,0.093 0.01,0.093 0,0.092 0,0.092 Z"
         style="fill:#333332;fill-opacity:1;fill-rule:nonzero;stroke:none"
         id="path208"
         inkscape:connector-curvature="0" /></g><g
       id="g210"
       transform="translate(445.248,186.1357)"><path
         d="M 0,0 C 0,0 0.055,-0.007 0.141,-0.019 0.141,-0.014 0.139,0 0.139,0 Z"
         style="fill:#333332;fill-opacity:1;fill-rule:nonzero;stroke:none"
         id="path212"
         inkscape:connector-curvature="0" /></g><path
       inkscape:connector-curvature="0"
       id="path216"
       style="fill:#800033;fill-opacity:1;fill-rule:nonzero;stroke:none"
       d="m 357.1602,505.8574 c -1.082,-0.132 -10.683,-1.273 -23.454,-1.755 -1.766,0.286 -3.644,0.839 -4.094,1.905 -0.716,1.698 0.387,3.851 2.001,5.903 l -0.041,0.013 c 1.716,2.061 2.733,4.713 2.733,7.605 0,6.561 -5.353,11.89 -11.916,11.89 -6.563,0 -11.947,-5.305 -11.947,-11.868 0,-2.856 0.558,-5.407 2.558,-7.497 v -0.024 c 2,-2.091 3.228,-4.283 2.512,-5.981 -0.45,-1.065 -2.291,-1.628 -4.023,-1.924 -12.579,0.514 -22.046,1.71 -23.259,1.867 0.041,-0.324 1.383,-11.173 1.834,-25.503 -0.328,-0.996 -0.791,-1.811 -1.445,-2.087 -1.697,-0.716 -3.876,0.386 -5.928,2.001 l -0.014,-0.043 c -2.06,1.716 -4.712,2.728 -7.604,2.728 -6.561,0 -11.89,-5.359 -11.89,-11.921 0,-6.564 5.305,-11.829 11.869,-11.829 2.855,0 5.406,0.663 7.496,2.663 h 0.024 c 2.091,1 4.309,3.124 6.007,2.407 0.664,-0.28 1.135,-1.166 1.47,-2.161 -0.471,-13.731 -1.812,-24.261 -1.947,-25.293 0.215,0.03 67.978,0.144 69.065,-0.004"
       inkscape:export-xdpi="96.031494"
       inkscape:export-ydpi="96.031494" /><g
       id="g218"
       transform="translate(288.0898,436.8262)"><path
         d="M 0,0 C 0,0 0.005,0.039 0.013,0.094 0.01,0.094 0,0.092 0,0.092 Z"
         style="fill:#333332;fill-opacity:1;fill-rule:nonzero;stroke:none"
         id="path220"
         inkscape:connector-curvature="0" /></g><g
       id="g222"
       transform="translate(288.0898,506.0098)"><path
         d="M 0,0 C 0,0 0.054,-0.007 0.141,-0.019 0.14,-0.014 0.139,0 0.139,0 Z"
         style="fill:#333332;fill-opacity:1;fill-rule:nonzero;stroke:none"
         id="path224"
         inkscape:connector-curvature="0" /></g><g
       id="g226"
       transform="translate(672.0488,145.2461)"><path
         d="M 0,0 C -0.335,0.995 -0.806,1.881 -1.47,2.161 -3.168,2.878 -5.386,0.754 -7.477,-0.246 h -0.024 c -2.09,-2 -4.641,-2.662 -7.496,-2.662 -6.564,0 -11.868,5.264 -11.868,11.828 0,6.562 5.328,11.922 11.889,11.922 2.892,0 5.544,-1.013 7.604,-2.729 l 0.015,0.043 c 2.051,-1.615 4.23,-2.717 5.927,-2.001 0.655,0.277 1.118,1.091 1.446,2.087 -0.411,13.023 -1.555,23.168 -1.791,25.154 -3.553,-0.384 -11.579,-1.163 -21.568,-1.54 -1.765,0.287 -3.643,0.839 -4.094,1.906 -0.715,1.697 0.387,3.85 2.001,5.902 l -0.041,0.014 c 1.716,2.06 2.733,4.713 2.733,7.604 0,6.562 -5.353,11.89 -11.915,11.89 -6.564,0 -11.947,-5.305 -11.947,-11.867 0,-2.857 0.557,-5.408 2.557,-7.497 v -0.025 c 2,-2.091 3.229,-4.283 2.512,-5.98 -0.449,-1.066 -2.291,-1.628 -4.023,-1.925 -12.579,0.515 -22.045,1.71 -23.258,1.867 0.041,-0.324 1.382,-11.173 1.834,-25.503 -0.329,-0.996 -0.791,-1.81 -1.446,-2.087 -1.697,-0.716 -3.876,0.386 -5.927,2.001 l -0.015,-0.043 c -2.06,1.716 -4.712,2.729 -7.604,2.729 -6.561,0 -11.889,-5.36 -11.889,-11.922 0,-6.564 5.304,-11.828 11.868,-11.828 2.855,0 5.406,0.662 7.496,2.662 h 0.024 c 2.091,1 4.309,3.124 6.007,2.407 0.664,-0.28 1.135,-1.166 1.47,-2.161 -0.471,-13.73 -1.812,-24.261 -1.946,-25.293 0.194,0.027 55.529,0.123 67.004,0.032 C -1.793,-24.111 -0.468,-13.64 0,0"
         style="fill:#333332;fill-opacity:1;fill-rule:nonzero;stroke:none"
         id="path228"
         inkscape:connector-curvature="0" /></g><g
       id="g230"
       transform="translate(644.8154,593.2559)"
       style="fill:#5500d4"
       inkscape:export-xdpi="96.031494"
       inkscape:export-ydpi="96.031494"><path
         d="m 0,0 c -0.995,0.334 -1.911,0.805 -2.192,1.469 -0.717,1.699 1.377,3.916 2.377,6.008 V 7.5 c 2,2.09 2.693,4.641 2.693,7.496 0,6.565 -5.25,11.869 -11.814,11.869 -6.562,0 -11.914,-5.328 -11.914,-11.89 0,-2.891 1.017,-5.543 2.733,-7.604 l -0.041,-0.014 c 1.615,-2.052 2.718,-4.23 2.002,-5.927 -0.277,-0.655 -1.091,-1.118 -2.087,-1.446 -13.022,0.411 -23.167,1.555 -25.153,1.791 0.384,3.553 1.163,11.579 1.54,21.567 -0.287,1.765 -0.839,3.644 -1.906,4.094 -1.697,0.716 -3.85,-0.387 -5.902,-2 l -0.014,0.041 c -2.06,-1.717 -4.713,-2.733 -7.604,-2.733 -6.562,0 -11.89,5.352 -11.89,11.914 0,6.565 5.305,11.796 11.867,11.796 2.857,0 5.408,-0.71 7.497,-2.71 h 0.025 c 2.091,-2 4.283,-3.076 5.98,-2.359 1.066,0.449 1.628,2.367 1.925,4.098 -0.515,12.58 -1.71,22.083 -1.867,23.296 0.324,-0.041 11.173,-1.363 25.503,-1.814 0.996,0.328 1.81,0.801 2.087,1.455 0.716,1.697 -0.386,3.881 -2.001,5.932 l 0.043,0.017 c -1.716,2.06 -2.729,4.713 -2.729,7.606 0,6.56 5.36,11.889 11.922,11.889 6.564,0 11.798,-5.304 11.798,-11.868 0,-2.855 -0.693,-5.406 -2.693,-7.496 v -0.023 c -1,-2.092 -3.094,-4.309 -2.377,-6.008 0.281,-0.664 1.181,-1.135 2.176,-1.469 13.731,0.471 24.269,1.811 25.301,1.945 C 25.258,68.752 25.166,13.416 25.257,1.941 24.107,1.793 13.64,0.467 0,0"
         style="fill:#5500d4;fill-opacity:1;fill-rule:nonzero;stroke:none"
         id="path232"
         inkscape:connector-curvature="0" /></g><g
       id="g234"
       transform="translate(285.4033,618.5332)"
       style="fill:#2a2aff"
       inkscape:export-xdpi="96.031494"
       inkscape:export-ydpi="96.031494"><path
         d="M 0,0 C 0.335,0.994 0.806,1.737 1.47,2.018 3.168,2.734 5.386,0.467 7.477,-0.533 h 0.024 c 2.09,-2 4.641,-2.519 7.496,-2.519 6.564,0 11.868,5.336 11.868,11.9 0,6.562 -5.328,11.958 -11.889,11.958 -2.892,0 -5.544,-0.995 -7.604,-2.711 L 7.357,18.146 C 5.306,16.531 3.127,15.435 1.43,16.15 c -0.655,0.277 -1.118,1.093 -1.446,2.089 0.411,13.023 1.556,23.169 1.792,25.156 3.551,-0.385 11.578,-1.163 21.567,-1.54 1.765,0.287 3.643,0.839 4.094,1.906 0.715,1.697 -0.387,3.85 -2.001,5.903 l 0.041,0.014 c -1.716,2.06 -2.733,4.713 -2.733,7.603 0,6.563 5.353,11.891 11.915,11.891 6.564,0 11.721,-5.305 11.721,-11.867 0,-2.858 -0.783,-5.409 -2.783,-7.498 v -0.024 c -2,-2.092 -3.002,-4.283 -2.285,-5.98 0.449,-1.067 2.403,-1.629 4.134,-1.926 12.579,0.516 22.103,1.711 23.316,1.867 -0.041,-0.324 -1.355,-11.172 -1.806,-25.502 0.328,-0.996 0.805,-1.81 1.459,-2.088 1.697,-0.715 3.884,0.387 5.936,2.002 l 0.017,-0.043 c 2.061,1.715 4.714,2.729 7.606,2.729 6.561,0 11.89,-5.36 11.89,-11.922 0,-6.565 -5.304,-11.972 -11.867,-11.972 -2.855,0 -5.406,0.519 -7.496,2.519 h -0.024 c -2.091,1 -4.309,3.267 -6.007,2.551 -0.664,-0.281 -1.135,-1.095 -1.47,-2.09 0.471,-13.731 1.812,-24.225 1.946,-25.257 -0.194,0.027 -55.529,0.141 -67.004,0.05 C 1.792,-24.13 0.468,-13.641 0,0"
         style="fill:#2a2aff;fill-opacity:1;fill-rule:nonzero;stroke:none"
         id="path236"
         inkscape:connector-curvature="0" /></g><g
       id="g238"
       transform="translate(511.9248,663.5098)"
       style="fill:#0000ff"
       inkscape:export-xdpi="96.031494"
       inkscape:export-ydpi="96.031494"><path
         d="m 0,0 c -0.095,0.846 -0.152,1.49 -0.152,1.49 h -0.139 c 0,0 -11.261,-1.761 -26.103,-2.252 -1.105,0.328 -2.033,0.718 -2.332,1.426 -0.715,1.696 0.391,3.804 2.005,5.856 l -0.034,-0.008 c 1.716,2.06 2.747,4.701 2.747,7.592 0,6.562 -5.325,11.884 -11.888,11.884 -6.563,0 -11.794,-5.307 -11.794,-11.871 0,-2.855 0.765,-5.409 2.765,-7.499 V 6.594 c 2,-2.091 3.02,-4.283 2.305,-5.981 -0.291,-0.689 -1.225,-0.985 -2.288,-1.317 -14.051,0.545 -24.567,2.194 -24.567,2.194 h -0.091 c 0,0 -1.598,-11.569 -2.079,-26.534 0.282,-0.552 0.628,-1.063 1.062,-1.247 1.697,-0.715 3.851,0.348 5.902,1.962 l 0.015,-0.05 c 2.06,1.715 4.712,2.746 7.603,2.746 6.562,0 11.889,-5.308 11.889,-11.871 0,-6.562 -5.304,-11.807 -11.867,-11.807 -2.855,0 -5.406,0.801 -7.496,2.801 h -0.026 c -2.089,2 -4.282,2.984 -5.98,2.267 -0.455,-0.192 -0.816,-0.896 -1.106,-1.493 0.473,-15.05 2.083,-26.774 2.083,-26.774 h 0.091 c 0,0 9.888,-1.159 23.34,-1.738 1.787,0.26 3.713,0.902 4.17,1.984 0.715,1.698 -0.392,3.815 -2.008,5.868 l 0.028,0.042 c -1.715,2.06 -2.757,4.727 -2.757,7.618 0,6.562 5.302,11.896 11.864,11.896 6.564,0 11.761,-5.301 11.761,-11.863 0,-2.857 -0.848,-5.404 -2.848,-7.494 v -0.024 c -1,-2.091 -2.939,-4.191 -2.222,-5.888 0.468,-1.114 2.558,-1.653 4.408,-1.914 13.486,0.577 23.426,1.967 23.426,1.967 0,0 0.098,0.745 0.237,1.929"
         style="fill:#0000ff;fill-opacity:1;fill-rule:nonzero;stroke:none"
         id="path240"
         inkscape:connector-curvature="0" /></g><g
       id="g242"
       transform="translate(357.3018,307.6484)"
       inkscape:export-xdpi="96.031494"
       inkscape:export-ydpi="96.031494"><path
         d="m 0,0 c -1.697,0.715 -3.758,-0.391 -5.81,-2.004 l -0.013,0.033 c -2.061,-1.716 -4.713,-2.746 -7.605,-2.746 -6.561,0 -11.889,5.324 -11.889,11.887 0,6.564 5.304,11.871 11.868,11.871 2.855,0 5.406,-0.689 7.496,-2.689 h 0.024 c 2.091,-2 4.191,-3.096 5.889,-2.381 1.006,0.425 1.543,1.929 1.83,3.597 C 1.264,30.834 0.044,40.352 0.044,40.352 h -0.138 c 0,0 -11.921,-1.474 -27.397,-1.912 -0.494,0.27 -0.867,0.699 -1.037,1.101 -0.716,1.697 0.39,3.899 2.004,5.951 l -0.034,0.039 c 1.716,2.061 2.746,4.726 2.746,7.617 0,6.563 -5.324,11.896 -11.886,11.896 -6.565,0 -12.082,-5.302 -12.082,-11.864 0,-2.856 1.478,-5.405 2.478,-7.494 v -0.024 c 2,-2.092 3.308,-4.283 2.591,-5.982 -0.166,-0.395 -0.435,-0.918 -0.915,-1.188 -14.664,0.504 -25.651,1.86 -25.651,1.86 h -0.092 c 0,0 -1.598,-11.19 -2.078,-26.156 0.28,-0.55 0.628,-0.873 1.061,-1.055 1.698,-0.716 3.85,0.441 5.903,2.056 l 0.013,-0.003 c 2.061,1.716 4.713,2.771 7.604,2.771 6.562,0 11.889,-5.297 11.889,-11.86 0,-6.562 -5.303,-11.679 -11.867,-11.679 -2.856,0 -5.406,0.926 -7.497,2.926 h -0.024 c -2.09,1 -4.282,2.863 -5.981,2.146 -0.455,-0.191 -0.817,-0.836 -1.106,-1.434 0.473,-15.048 2.083,-26.712 2.083,-26.712 h 0.092 c 0,0 9.887,-1.28 23.339,-1.858 1.788,0.26 3.712,0.842 4.169,1.924 0.716,1.697 -0.392,3.784 -2.006,5.836 l 0.027,0.028 c -1.715,2.06 -2.757,4.719 -2.757,7.611 0,6.561 5.302,11.892 11.864,11.892 6.564,0 11.973,-5.303 11.973,-11.865 0,-2.857 -1.634,-5.405 -2.634,-7.496 V -22.6 c -2,-2.09 -3.152,-4.191 -2.435,-5.888 0.469,-1.114 2.453,-1.653 4.3,-1.914 13.487,0.577 23.375,1.967 23.375,1.967 0,0 1.389,10.456 1.913,24.499 C 1.579,-2.218 1.034,-0.437 0,0"
         style="fill:#27b6a9;fill-opacity:1;fill-rule:nonzero;stroke:none"
         id="path244"
         inkscape:connector-curvature="0" /></g><g
       id="g246"
       transform="translate(157.2319,595.1172)"
       inkscape:export-xdpi="96.031494"
       inkscape:export-ydpi="96.031494"
       style="fill:#217844"><path
         d="m 0,0 c 0.715,1.697 -0.391,3.758 -2.004,5.809 l 0.033,0.013 c -1.716,2.061 -2.746,4.713 -2.746,7.606 0,6.56 5.324,11.888 11.887,11.888 6.564,0 12.08,-5.304 12.08,-11.867 0,-2.855 -0.482,-5.406 -2.482,-7.496 V 5.928 c -2,-2.09 -3.304,-4.19 -2.589,-5.889 0.426,-1.006 2.034,-1.543 3.702,-1.83 13.265,0.527 22.887,1.746 22.887,1.746 v 0.139 c 0,0 -1.682,11.92 -2.119,27.396 0.269,0.494 0.594,0.867 0.996,1.037 1.697,0.717 3.848,-0.39 5.899,-2.004 l 0.013,0.034 c 2.061,-1.715 4.713,-2.746 7.605,-2.746 6.562,0 11.888,5.324 11.888,11.886 0,6.565 -5.304,11.873 -11.867,11.873 -2.855,0 -5.408,-1.687 -7.497,-2.687 h -0.024 c -2.092,-2 -4.283,-3.099 -5.982,-2.382 -0.395,0.166 -0.71,0.54 -0.979,1.02 0.504,14.665 2.067,25.756 2.067,25.756 v 0.092 c 0,0 -11.397,1.598 -26.363,2.078 -0.551,-0.281 -0.978,-0.629 -1.16,-1.062 -0.716,-1.697 0.389,-3.85 2.005,-5.903 l -0.03,-0.013 c 1.716,-2.061 2.758,-4.713 2.758,-7.604 0,-6.562 -5.304,-11.888 -11.866,-11.888 -6.563,0 -11.475,5.302 -11.475,11.867 0,2.855 1.131,5.406 3.131,7.496 v 0.025 c 1,2.09 2.655,4.281 1.939,5.981 -0.192,0.455 -0.732,0.816 -1.33,1.105 -15.049,-0.472 -26.609,-2.082 -26.609,-2.082 v -0.092 c 0,0 -1.487,-9.888 -2.065,-23.339 0.259,-1.788 0.737,-3.713 1.819,-4.17 1.697,-0.715 3.732,0.392 5.784,2.007 l 0.002,-0.027 c 2.06,1.715 4.706,2.756 7.598,2.756 6.561,0 11.886,-5.301 11.886,-11.863 0,-6.565 -5.306,-12.183 -11.869,-12.183 -2.856,0 -5.408,1.425 -7.499,2.425 H -22.6 c -2.09,2 -4.191,3.361 -5.888,2.644 -1.114,-0.469 -1.653,-2.347 -1.914,-4.195 0.577,-13.486 1.967,-23.322 1.967,-23.322 0,0 10.456,-1.364 24.499,-1.887 C -2.218,-1.605 -0.437,-1.035 0,0"
         style="fill:#217844;fill-opacity:1;fill-rule:nonzero;stroke:none"
         id="path248"
         inkscape:connector-curvature="0" /></g><g
       id="g250"
       transform="translate(516.1523,301.7129)"><path
         d="M 0,0 C -0.271,1.718 -0.816,3.498 -1.851,3.936 -3.548,4.65 -5.608,3.545 -7.66,1.932 l -0.014,0.033 c -2.06,-1.716 -4.713,-2.746 -7.604,-2.746 -6.445,0 -11.687,5.138 -11.872,11.539 0.155,6.428 5.411,11.597 11.875,11.597 2.891,0 5.543,-1.03 7.603,-2.746 l 0.013,0.034 c 2.052,-1.614 4.111,-2.719 5.808,-2.004 1.035,0.437 1.577,2.217 1.848,3.935 -0.249,6.679 -0.699,12.123 -1.103,16.016 -0.382,4.201 -0.701,6.697 -0.701,6.697 h -0.137 c 0,0 -11.921,-1.474 -27.398,-1.911 -0.494,0.27 -0.867,0.698 -1.037,1.101 -0.716,1.697 0.391,3.899 2.004,5.951 l -0.033,0.039 c 1.716,2.06 2.746,4.725 2.746,7.617 0,6.562 -5.324,11.895 -11.887,11.895 -6.564,0 -12.082,-5.301 -12.082,-11.864 0,-2.855 1.479,-5.404 2.479,-7.494 l -0.164,0.341 c 1.975,-2.852 3.471,-4.648 2.754,-6.347 -0.166,-0.394 -0.434,-0.918 -0.915,-1.187 -14.598,0.502 -25.548,1.859 -25.646,1.859 h -0.002 -0.003 -0.092 c 0,0 -0.569,-3.986 -1.13,-10.381 -0.387,-4.179 -0.763,-9.414 -0.95,-15.332 0.005,-0.011 0.011,-0.021 0.017,-0.031 -0.005,-0.138 -0.01,-0.273 -0.015,-0.411 0.28,-0.551 0.628,-0.873 1.062,-1.056 1.697,-0.716 3.849,0.442 5.902,2.057 l 0.014,-0.003 c 2.06,1.716 4.713,2.77 7.603,2.77 6.489,0 11.762,-5.181 11.879,-11.642 -0.148,-6.434 -5.406,-11.584 -11.876,-11.584 -2.89,0 -5.543,1.055 -7.603,2.77 l -0.014,-0.003 c -2.053,1.616 -4.205,2.773 -5.902,2.057 -0.434,-0.183 -0.782,-0.505 -1.062,-1.056 0.004,-0.133 0.01,-0.266 0.014,-0.4 -0.007,-0.014 -0.015,-0.028 -0.022,-0.042 0.155,-4.899 0.429,-9.436 0.729,-13.332 0.019,0.002 0.039,0.003 0.058,0.005 0.61,-7.556 1.299,-12.386 1.299,-12.386 h 0.092 c 0,0 10.986,1.356 25.65,1.859 0.481,-0.269 0.748,-0.792 0.914,-1.187 0.717,-1.699 -0.591,-3.891 -2.591,-5.982 v -0.024 c -1,-2.09 -2.477,-4.639 -2.477,-7.494 0,-6.563 5.519,-11.864 12.083,-11.864 6.563,0 11.887,5.333 11.887,11.895 0,2.892 -1.03,5.557 -2.746,7.617 l 0.033,0.039 c -1.613,2.052 -2.72,4.254 -2.004,5.952 0.17,0.402 0.543,0.831 1.037,1.1 15.477,-0.437 27.398,-1.911 27.398,-1.911 h 0.137 c 0,0 0.655,5.65 1.212,13.886 0.203,3.005 0.394,6.351 0.534,9.897 -0.14,-3.546 -0.331,-6.892 -0.534,-9.897 0.023,-0.002 0.044,-0.003 0.067,-0.005 C -0.319,-6.855 -0.132,-3.543 0,0"
         style="fill:#333332;fill-opacity:1;fill-rule:nonzero;stroke:none"
         id="path252"
         inkscape:connector-curvature="0" /></g><g
       id="g254"
       transform="translate(199.2271,277.2139)"
       style="fill:#2ca02c"
       inkscape:export-xdpi="96.031494"
       inkscape:export-ydpi="96.031494"><path
         d="m 0,0 c 0,0 1.396,10.456 1.919,24.499 -0.271,1.718 -0.813,3.498 -1.847,3.936 -1.697,0.714 -3.757,-0.391 -5.808,-2.004 l -0.014,0.033 c -2.06,-1.716 -4.712,-2.746 -7.604,-2.746 -6.561,0 -11.889,5.324 -11.889,11.886 0,6.565 5.305,11.872 11.868,11.872 2.856,0 5.407,-0.69 7.497,-2.69 h 0.024 c 2.091,-2 4.19,-3.096 5.889,-2.381 1.006,0.426 1.543,1.93 1.83,3.598 C 1.338,59.269 0.119,68.786 0.119,68.786 h -0.138 c 0,0 -11.921,-1.473 -27.398,-1.911 -0.494,0.27 -0.867,0.698 -1.037,1.101 -0.715,1.697 0.391,3.899 2.004,5.951 l -0.033,0.039 c 1.716,2.06 2.746,4.725 2.746,7.617 0,6.563 -5.324,11.896 -11.887,11.896 -6.564,0 -12.082,-5.302 -12.082,-11.865 0,-2.855 1.479,-5.404 2.479,-7.494 v -0.023 c 2,-2.092 3.308,-4.284 2.591,-5.983 -0.166,-0.394 -0.435,-0.918 -0.915,-1.187 -14.664,0.504 -25.652,1.859 -25.652,1.859 h -0.091 c 0,0 -1.598,-11.189 -2.079,-26.155 0.281,-0.551 0.628,-0.873 1.062,-1.056 1.697,-0.716 3.85,0.442 5.902,2.057 l 0.014,-0.003 c 2.061,1.716 4.713,2.77 7.603,2.77 6.563,0 11.89,-5.296 11.89,-11.859 0,-6.562 -5.304,-11.68 -11.867,-11.68 -2.856,0 -5.406,0.926 -7.497,2.926 h -0.025 c -2.089,1 -4.282,2.863 -5.98,2.147 -0.455,-0.192 -0.817,-0.836 -1.106,-1.434 0.473,-15.049 2.083,-26.713 2.083,-26.713 h 0.067"
         style="fill:#2ca02c;fill-opacity:1;fill-rule:nonzero;stroke:none"
         id="path256"
         inkscape:connector-curvature="0" /></g><g
       id="g258"
       transform="translate(673.4932,305.835)"><path
         d="m 0,0 c -1.696,0.715 -3.756,-0.391 -5.808,-2.004 l -0.013,0.033 c -2.06,-1.714 -4.711,-2.745 -7.601,-2.745 -6.559,0 -11.885,5.322 -11.885,11.883 0,6.561 5.302,11.776 11.863,11.776 2.855,0 5.404,-0.778 7.494,-2.778 h 0.024 c 2.089,-1 4.189,-3.006 5.886,-2.29 1.006,0.425 1.543,2.39 1.829,4.058 C 1.263,31.192 0.044,41.165 0.044,41.165 h -0.138 c 0,0 -12.057,1.335 -27.664,1.724 -0.354,-0.236 -0.623,-0.618 -0.759,-0.941 -0.714,-1.696 0.39,-3.902 2.003,-5.953 l -0.033,-0.042 c 1.715,-2.059 2.745,-4.724 2.745,-7.614 0,-6.56 -5.322,-11.892 -11.882,-11.892 -6.561,0 -11.682,5.3 -11.682,11.861 0,2.853 0.873,5.4 2.873,7.489 v 0.024 c 1,2.09 2.91,4.282 2.195,5.979 -0.135,0.318 -0.501,0.807 -0.848,1.043 -14.791,-0.453 -26.103,-1.678 -26.103,-1.678 h -0.092 c 0,0 -1.597,-11.6 -2.077,-26.559 0.28,-0.551 0.628,-1.081 1.062,-1.263 1.696,-0.716 3.847,0.338 5.899,1.951 l 0.014,-0.054 c 2.059,1.715 4.711,2.742 7.6,2.742 6.56,0 11.885,-5.306 11.885,-11.866 0,-6.56 -5.302,-11.775 -11.862,-11.775 -2.855,0 -5.405,0.824 -7.493,2.824 h -0.025 c -2.09,2 -4.281,2.955 -5.979,2.239 -0.454,-0.191 -0.816,-0.887 -1.106,-1.485 0.474,-15.043 2.082,-26.754 2.082,-26.754 h 0.092 c 0,0 9.884,-1.18 23.331,-1.758 1.786,0.259 3.71,0.891 4.167,1.973 0.715,1.697 -0.393,3.808 -2.006,5.858 l 0.028,0.041 c -1.715,2.06 -2.757,4.723 -2.757,7.614 0,6.558 5.299,11.89 11.859,11.89 6.561,0 11.868,-5.299 11.868,-11.859 0,-2.855 -0.734,-5.402 -2.734,-7.49 v -0.025 c -2,-2.09 -3.051,-4.188 -2.334,-5.887 0.469,-1.112 2.502,-1.65 4.35,-1.912 13.481,0.577 23.389,1.967 23.389,1.967 0,0 1.402,10.452 1.925,24.488 C 1.566,-2.217 1.034,-0.437 0,0"
         style="fill:#333332;fill-opacity:1;fill-rule:nonzero;stroke:none"
         id="path260"
         inkscape:connector-curvature="0" /></g><g
       id="g262"
       transform="translate(199.3691,435.916)"
       style="fill:#3737c8"
       inkscape:export-xdpi="96.031494"
       inkscape:export-ydpi="96.031494"><path
         d="m 0,0 c 0,0 1.5,10.414 2.022,24.457 -0.27,1.719 -0.753,3.479 -1.788,3.914 -1.697,0.717 -3.734,-0.4 -5.787,-2.015 l -0.002,0.029 c -2.06,-1.715 -4.707,-2.748 -7.597,-2.748 -6.563,0 -11.888,5.322 -11.888,11.885 0,6.564 5.306,12.062 11.87,12.062 2.856,0 5.407,-1.5 7.498,-2.5 h 0.024 c 2.09,-2 4.191,-3.287 5.889,-2.57 1.006,0.424 1.543,2.023 1.83,3.692 C 1.545,59.472 0.325,69.084 0.325,69.084 H 0.187 c 0,0 -12.063,1.559 -27.675,1.949 -0.356,-0.235 -0.623,-0.506 -0.76,-0.829 -0.715,-1.696 0.391,-3.848 2.005,-5.899 l -0.034,-0.014 c 1.715,-2.061 2.746,-4.713 2.746,-7.603 0,-6.563 -5.324,-11.89 -11.887,-11.89 -6.563,0 -11.756,5.306 -11.756,11.868 0,2.855 0.805,5.406 2.805,7.496 v 0.026 c 1,2.089 2.981,4.282 2.265,5.98 -0.134,0.318 -0.466,0.584 -0.814,0.818 -14.797,-0.453 -26.079,-1.902 -26.079,-1.902 h -0.092 c 0,0 -1.597,-11.381 -2.078,-26.346 0.28,-0.55 0.628,-0.968 1.062,-1.152 1.697,-0.715 3.85,0.394 5.902,2.01 l 0.014,-0.028 c 2.06,1.716 4.712,2.759 7.604,2.759 6.562,0 11.89,-5.302 11.89,-11.864 0,-6.564 -5.305,-11.993 -11.868,-11.993 -2.856,0 -5.407,1.614 -7.497,2.614 h -0.024 c -2.091,2 -4.283,3.172 -5.981,2.456 -0.455,-0.191 -0.817,-0.491 -1.107,-1.087 0.475,-15.051 2.083,-26.369 2.083,-26.369 h -0.28"
         style="fill:#3737c8;fill-opacity:1;fill-rule:nonzero;stroke:none"
         id="path264"
         inkscape:connector-curvature="0" /></g><g
       id="g266"
       transform="translate(358.2461,186.1836)"
       style="fill:#00aa00"
       inkscape:export-xdpi="96.031494"
       inkscape:export-ydpi="96.031494"><path
         d="m 0,0 v 0 c 0,0 -11.939,1.551 -27.553,1.941 -0.354,-0.236 -0.56,-0.509 -0.697,-0.833 -0.716,-1.697 0.422,-3.85 2.035,-5.902 l -0.018,-0.014 c 1.715,-2.06 2.754,-4.713 2.754,-7.604 0,-6.562 -5.321,-11.889 -11.883,-11.889 -6.564,0 -11.722,5.304 -11.722,11.867 0,2.856 0.838,5.407 2.838,7.497 v 0.025 c 1,2.09 2.949,4.282 2.234,5.98 -0.134,0.319 -0.483,0.5 -0.831,0.735 C -57.64,1.35 -68.938,-0.184 -68.938,-0.184 h -0.091 c 0,0 -1.597,-11.296 -2.078,-26.261 0.28,-0.551 0.628,-0.928 1.061,-1.11 1.697,-0.716 3.851,0.415 5.902,2.03 l 0.014,-0.016 c 2.061,1.715 4.713,2.763 7.605,2.763 6.561,0 11.889,-5.299 11.889,-11.862 0,-6.563 -5.304,-12.075 -11.868,-12.075 -2.855,0 -5.406,1.531 -7.496,2.531 h -0.024 c -2.091,2 -4.284,3.256 -5.982,2.54 -0.454,-0.192 -0.816,-0.532 -1.106,-1.129 0.474,-15.05 2.083,-26.411 2.083,-26.411 h 0.091 68.692"
         style="fill:#00aa00;fill-opacity:1;fill-rule:nonzero;stroke:none"
         id="path268"
         inkscape:connector-curvature="0" /></g><g
       id="g270"
       transform="translate(446,437)"
       inkscape:export-xdpi="96.031494"
       inkscape:export-ydpi="96.031494"><path
         d="m 0,0 h 0.121 c 0,0 -0.014,-0.043 -0.038,-0.219 -0.241,1.801 -1.614,12.566 -2.046,26.276 0.29,0.597 0.652,1.057 1.108,1.25 C 0.842,28.022 3.035,27 5.125,25 h 0.024 c 2.091,-2 4.642,-2.749 7.497,-2.749 6.563,0 11.868,5.289 11.868,11.853 0,6.562 -5.327,11.867 -11.89,11.867 -2.892,0 -5.543,-1.041 -7.603,-2.756 L 5.006,43.242 C 2.954,41.629 0.801,40.52 -0.896,41.236 -1.329,41.419 -1.677,41.841 -1.957,42.393 -1.52,56.02 -0.156,66.58 0.083,68.373 0.107,68.197 0.121,68 0.121,68 h 0.092 c 0,0 9.707,-1.266 22.974,-1.854 1.84,0.278 3.883,0.891 4.368,2.037 C 28.271,69.881 27,72.121 25,74.211 v 0.025 c -2,2.09 -2.516,4.641 -2.516,7.496 0,6.564 5.406,11.868 11.969,11.868 6.563,0 11.926,-5.328 11.926,-11.889 0,-2.892 -1.012,-5.544 -2.728,-7.605 l 0.044,-0.014 C 42.08,72.04 40.979,69.888 41.695,68.19 42.176,67.053 44.17,66.5 46.029,66.23 58.426,66.768 68,67.988 69,68.168 V 0"
         style="fill:#333332;fill-opacity:1;fill-rule:nonzero;stroke:none"
         id="path272"
         inkscape:connector-curvature="0" /></g><g
       id="g274"><g
         id="g276" /></g><path
       style="fill:none;stroke-width:1.12994361"
       d=""
       id="path5501"
       inkscape:connector-curvature="0"
       transform="matrix(0.75000002,0,0,-0.75000002,0,800.00005)" /><path
       style="fill:none;stroke-width:1.12994361"
       d=""
       id="path5503"
       inkscape:connector-curvature="0"
       transform="matrix(0.75000002,0,0,-0.75000002,0,800.00005)" /><path
       style="fill:none;stroke-width:1.12994361"
       d="m 450.45274,1038.0101 c 0,-2.7966 0.22036,-3.9407 0.48969,-2.5424 0.26932,1.3983 0.26932,3.6865 0,5.0848 -0.26933,1.3983 -0.48969,0.2542 -0.48969,-2.5424 z"
       id="path5505"
       inkscape:connector-curvature="0"
       transform="matrix(0.75000002,0,0,-0.75000002,0,800.00005)" /><path
       style="fill:none;stroke-width:1.12994361"
       d="m 454.27492,1041.5935 c -2.51447,-2.7785 -2.35795,-6.4853 0.38984,-9.2331 2.73492,-2.7349 5.97897,-2.8992 8.45031,-0.4278 2.98431,2.9843 1.67441,5.4678 -3.09247,5.8632 -4.50126,0.3734 -5.23047,1.3654 -2.60521,3.5442 1.18136,0.9804 2.23676,1.0181 3.88052,0.1383 3.15496,-1.6884 4.05971,-1.5055 2.4064,0.4866 -1.93678,2.3337 -7.16777,2.1276 -9.42939,-0.3714 z m 7.5552,-7.5979 c -0.77712,-2.0252 -5.06282,-1.7705 -5.75858,0.3422 -0.30398,0.923 0.72976,1.4124 2.98337,1.4124 2.65332,0 3.29327,-0.4046 2.77521,-1.7546 z"
       id="path5507"
       inkscape:connector-curvature="0"
       transform="matrix(0.75000002,0,0,-0.75000002,0,800.00005)" /><path
       style="fill:none;stroke-width:1.12994361"
       d="m 471.23727,1040.6466 c -0.41431,-0.4143 -0.7533,-1.9557 -0.7533,-3.4253 0,-3.242 2.96517,-4.6399 5.16854,-2.4365 1.38467,1.3846 1.36397,1.9454 -0.15169,4.1093 -1.81074,2.5852 -2.95894,3.0572 -4.26355,1.7525 z"
       id="path5509"
       inkscape:connector-curvature="0"
       transform="matrix(0.75000002,0,0,-0.75000002,0,800.00005)" /><path
       style="fill:none;stroke-width:1.12994361"
       d="m 492.7062,1040.6466 c -0.41432,-0.4143 -0.7533,-2.1939 -0.7533,-3.9548 0,-2.3879 0.54359,-3.2015 2.139,-3.2015 2.69075,0 3.86419,2.878 2.33697,5.7316 -1.20773,2.2567 -2.42491,2.7225 -3.72267,1.4247 z"
       id="path5511"
       inkscape:connector-curvature="0"
       transform="matrix(0.75000002,0,0,-0.75000002,0,800.00005)" /><path
       style="fill:none;stroke-width:1.12994361"
       d="m 385.37617,904.39428 c -0.37025,-3.26271 -1.02062,-11.13244 -1.44526,-17.48829 -0.90953,-13.61311 -0.0552,-14.75004 7.38449,-9.82671 6.25151,4.13705 14.00688,4.82327 19.00941,1.68201 11.16011,-7.00782 10.67907,-22.67195 -0.88031,-28.66595 -5.22377,-2.70873 -11.7994,-1.96763 -17.80499,2.00668 -7.67866,5.08149 -8.62703,3.86591 -7.7086,-9.88048 0.42464,-6.35584 1.06751,-14.16176 1.4286,-17.34648 l 0.65651,-5.79039 6.92324,-0.67701 c 3.80778,-0.37235 11.62663,-1.01759 17.37522,-1.43387 12.29744,-0.89051 12.43252,-0.70746 6.99246,9.47573 -2.75631,5.15951 -3.30943,7.2797 -2.72119,10.43063 1.14787,6.14847 4.00268,10.00752 9.30052,12.57216 10.91717,5.28491 22.91429,-2.63187 22.84962,-15.07824 -0.0107,-2.05836 -1.51052,-6.22261 -3.37056,-9.35833 -5.33278,-8.99017 -5.41244,-8.92796 10.2958,-8.04021 7.5271,0.42539 15.91694,1.07927 18.64407,1.45307 l 4.95844,0.67962 v 45.60913 45.60913 h -45.60715 -45.60714 z"
       id="path5513"
       inkscape:connector-curvature="0"
       transform="matrix(0.75000002,0,0,-0.75000002,0,800.00005)" /><path
       style="fill:none;stroke-width:1.12994361"
       d="m 216.58401,937.49087 c -4.26742,-2.60199 -7.11701,-7.593 -7.11701,-12.46529 0,-1.92074 1.58109,-6.5302 3.51354,-10.24327 3.01384,-5.79091 3.2966,-7.0124 1.98824,-8.58889 -1.31591,-1.58557 -3.38818,-1.74281 -15.09546,-1.14541 -7.46359,0.38086 -15.22157,1.02493 -17.23996,1.4313 l -3.6698,0.73882 0.84494,-8.89781 c 0.46472,-4.89378 0.84494,-12.96559 0.84494,-17.93734 0,-8.58138 -0.13217,-9.05829 -2.6077,-9.40919 -1.43424,-0.2033 -3.97661,0.55759 -5.64972,1.69086 -7.62699,5.1661 -11.87826,5.90026 -17.82519,3.07826 -9.81347,-4.6568 -11.37053,-19.2787 -2.7828,-26.13257 0.96072,-0.76675 3.72625,-1.94999 6.14561,-2.62942 3.99654,-1.12235 5.04451,-0.90761 11.4588,2.34812 10.54726,5.35351 11.261,4.88558 11.261,-7.38273 0,-5.583 -0.34299,-13.73265 -0.76221,-18.11034 l -0.76221,-7.95942 7.54188,0.82653 c 14.59165,1.59913 26.24857,1.38965 28.14398,-0.50575 1.57256,-1.57256 1.39508,-2.36334 -1.80174,-8.0278 -6.08624,-10.78423 -4.23111,-20.39637 4.72089,-24.46071 5.95155,-2.70209 6.9294,-2.69899 12.58735,0.04 8.67379,4.19891 11.14377,14.30037 5.66982,23.18784 -1.53109,2.48588 -2.78641,5.62958 -2.78959,6.98601 -0.01,4.20999 3.17455,4.58504 25.86086,3.04577 l 10.61239,-0.72006 -0.70465,7.77352 c -2.23669,24.67413 -2.25435,27.1606 -0.1985,27.9495 1.21424,0.46595 4.22225,-0.54224 7.90585,-2.64979 10.24505,-5.86163 19.28246,-4.13137 23.77248,4.55137 3.83238,7.41101 0.65063,17.24795 -6.70833,20.74 -5.54646,2.63197 -9.30267,2.25429 -16.17964,-1.62683 -4.05042,-2.28591 -6.88156,-3.19366 -8.42893,-2.70255 -2.51454,0.79809 -2.51297,0.52018 -0.16122,28.42583 l 0.68743,8.15692 -6.08487,-0.77796 c -3.34668,-0.42789 -11.4132,-0.79343 -17.92561,-0.81231 -13.98156,-0.0406 -14.73346,0.7339 -9.15414,9.42851 4.12257,6.42447 4.55248,12.49443 1.26661,17.88344 -4.24066,6.9549 -14.07703,9.23217 -21.17733,4.90286 z"
       id="path5515"
       inkscape:connector-curvature="0"
       transform="matrix(0.75000002,0,0,-0.75000002,0,800.00005)" /><path
       style="fill:#00aa88;stroke-width:1.12994361"
       d="m 805.34221,899.8745 c 1.47197,-13.32469 2.06367,-25.55992 1.34553,-27.82259 -1.03503,-3.26108 -3.19701,-3.02888 -10.45322,1.12271 -4.98167,2.85022 -7.01971,3.41119 -10.63257,2.9266 -8.58541,-1.15154 -13.79969,-6.79189 -13.79969,-14.92728 0,-5.73099 2.42595,-9.95011 7.50019,-13.04408 5.05687,-3.08336 9.97845,-2.75437 17.30821,1.15702 10.92261,5.82863 11.7421,3.97591 9.45719,-21.3808 -0.58477,-6.48941 -0.90543,-11.95671 -0.71258,-12.14956 0.19285,-0.19285 7.06546,0.23104 15.27246,0.94198 16.50451,1.42971 20.47774,0.71205 20.47774,-3.69877 0,-1.35297 -1.32437,-4.19629 -2.94305,-6.31848 -8.02021,-10.51504 -1.07618,-25.16834 11.92699,-25.16834 12.02544,0 18.63547,13.43846 11.94949,24.29379 -6.47153,10.50715 -3.20797,12.6795 16.5981,11.04834 7.6345,-0.62875 14.04524,-1.00411 14.24611,-0.83413 0.76463,0.64705 2.56764,24.49632 2.23905,29.61696 -0.31339,4.88368 -0.58384,5.34046 -3.00569,5.07633 -1.46372,-0.15963 -4.17965,-1.37139 -6.0354,-2.6928 -7.50596,-5.34471 -18.88422,-3.36629 -23.48886,4.08417 -3.4728,5.61911 -3.1209,14.10758 0.77689,18.73983 3.28492,3.90391 8.7807,6.71272 13.13424,6.71272 1.48615,0 5.62399,-1.55922 9.19521,-3.46492 9.6686,-5.15946 10.13187,-4.62863 9.21281,10.55611 -0.4222,6.97555 -1.07131,14.5896 -1.44247,16.92011 l -0.67485,4.23729 h -44.05358 -44.05358 z"
       id="path5540"
       inkscape:connector-curvature="0"
       transform="matrix(0.75000002,0,0,-0.75000002,0,800.00005)"
       inkscape:export-xdpi="96.031494"
       inkscape:export-ydpi="96.031494" /><path
       style="fill:#217844;stroke-width:0.2824859"
       d="m 832.31936,699.34516 c -0.62147,-0.0561 -3.48164,-0.24161 -6.35593,-0.4122 -5.52956,-0.32819 -20.07274,-1.60329 -20.24443,-1.77498 -0.3528,-0.3528 -1.87044,-16.8635 -2.34128,-25.47121 -0.16148,-2.95198 -0.35081,-6.40726 -0.42075,-7.6784 -0.11206,-2.03677 -0.0535,-2.42016 0.49332,-3.22917 1.52523,-2.2566 4.37374,-1.58523 8.76483,2.0658 3.0288,2.51833 5.96975,3.61578 9.68963,3.61578 4.81725,0 8.35714,-1.41707 11.57282,-4.63275 5.00737,-5.00737 6.06598,-12.26132 2.72071,-18.64321 -2.83136,-5.40147 -8.64545,-8.63142 -14.89587,-8.27523 -3.40422,0.194 -5.49076,0.96844 -9.12926,3.3884 -4.22345,2.80901 -6.12359,3.46055 -7.82779,2.68406 -1.37262,-0.6254 -1.4919,-1.28962 -1.23306,-6.86591 0.30533,-6.57761 0.9759,-15.52326 1.68339,-22.45707 0.74384,-7.29004 0.80391,-7.62727 1.35921,-7.6296 0.25203,-10e-4 3.38197,-0.2516 6.95542,-0.55675 6.96819,-0.59506 19.64167,-1.35504 24.3541,-1.46042 3.1344,-0.0701 3.79794,0.18575 4.15324,1.60137 0.32329,1.28807 -1.34924,4.77497 -4.41729,9.20918 -3.94753,5.70531 -2.98221,14.50714 2.1507,19.61023 0.94894,0.94343 2.44324,2.12307 3.32065,2.62142 1.98029,1.12475 5.42116,2.02775 7.72674,2.02775 2.18629,0 5.66635,-0.87457 7.56283,-1.90061 1.9563,-1.0584 4.59206,-3.53527 5.8863,-5.53147 1.71846,-2.6505 2.35671,-4.91499 2.36392,-8.38713 0.009,-4.45533 -0.61896,-6.23657 -3.91306,-11.09512 -2.54714,-3.75684 -3.1165,-6.18229 -1.80112,-7.67259 l 0.63559,-0.72012 6.63842,0.27594 c 9.14546,0.38014 29.85992,1.80884 30.12812,2.07797 0.25438,0.25526 1.6386,17.0459 2.07891,25.21725 0.32455,6.02295 0.20514,7.29117 -0.89371,9.49197 -0.64726,1.29634 -1.43496,1.74293 -2.70941,1.53611 -1.04875,-0.17019 -5.4394,-2.62266 -7.96918,-4.45133 -2.21419,-1.60055 -4.60902,-2.28697 -8.06411,-2.31139 -4.78664,-0.0338 -8.30015,1.39223 -11.60534,4.71042 -3.84909,3.86423 -5.36354,8.9897 -4.23263,14.32485 1.63326,7.70499 9.13927,13.29566 16.88428,12.57583 3.09953,-0.28807 5.42396,-1.2095 8.76373,-3.47406 3.56358,-2.41631 4.64976,-2.91511 6.34789,-2.91511 1.66398,0 2.69186,1.0034 3.35742,3.27745 0.4455,1.52213 0.45847,2.22731 0.15025,8.16323 -0.51334,9.88609 -1.94974,25.88113 -2.36114,26.29254 -0.39639,0.39639 -15.93033,1.86442 -25.51267,2.41107 -5.79205,0.33042 -6.00105,0.32332 -7.95568,-0.27038 -4.52985,-1.3759 -4.62558,-4.13516 -0.32493,-9.36543 2.12528,-2.58468 3.20303,-4.77937 3.65088,-7.43457 1.32763,-7.87105 -3.02245,-15.25727 -10.62755,-18.04506 -2.47887,-0.90867 -7.42882,-0.90732 -10.06288,0.003 -6.8373,2.36229 -11.37693,9.12576 -10.86169,16.1825 0.23768,3.25528 1.13909,5.58906 3.52983,9.13883 2.50494,3.71933 2.86588,4.51257 2.86588,6.2983 0,1.73561 -0.46709,2.3782 -2.31856,3.18973 -1.49446,0.65505 -4.74781,0.938 -7.70969,0.67053 z"
       id="path5542"
       inkscape:connector-curvature="0"
       transform="matrix(0.75000002,0,0,-0.75000002,0,800.00005)"
       inkscape:export-xdpi="96.031494"
       inkscape:export-ydpi="96.031494" /><path
       style="fill:#cc00ff;stroke-width:0.2824859"
       d="m 635.96401,728.61806 c -5.81466,-0.8911 -10.93928,-5.00446 -12.87233,-10.33217 -0.83278,-2.29526 -1.03247,-6.53258 -0.40893,-8.67748 0.75083,-2.58276 2.55183,-6.20077 3.81071,-7.6553 2.6399,-3.05016 3.35247,-6.12846 1.80046,-7.77799 l -0.77684,-0.82566 -5.22598,0.25189 c -7.11872,0.34311 -16.53724,1.02806 -23.15427,1.68387 -3.0244,0.29975 -5.5843,0.4517 -5.68867,0.33768 -0.59213,-0.64689 -2.79548,-26.39037 -2.79548,-32.66177 0,-1.94199 0.059,-2.15544 0.74431,-2.69454 1.65016,-1.29801 4.40948,-0.54929 8.15399,2.21253 3.6037,2.65796 6.53099,3.69917 10.39993,3.69917 8.04036,0 14.42916,-5.55755 15.72683,-13.68059 0.44247,-2.76976 -0.10769,-5.73479 -1.62857,-8.77703 -2.56019,-5.12117 -8.26856,-8.62376 -14.03494,-8.61165 -3.77578,0.008 -6.78368,1.07685 -10.32201,3.66814 -4.04747,2.96417 -6.88008,3.7003 -8.39794,2.18244 l -0.75062,-0.75062 0.34291,-6.85998 c 0.49212,-9.84472 2.08789,-27.19945 2.54492,-27.67722 0.10301,-0.10768 1.90339,-0.0142 4.00085,0.20783 9.19771,0.97345 29.47373,2.26913 30.33536,1.93849 0.21147,-0.0811 0.60984,-0.566 0.88527,-1.07744 0.80069,-1.4868 0.45869,-3.14469 -1.1706,-5.67457 -2.8041,-4.35406 -3.13348,-4.94205 -4.06087,-7.24919 -0.78278,-1.94737 -0.96842,-2.82723 -1.07005,-5.07165 -0.20688,-4.56903 1.20112,-8.08717 4.56938,-11.41736 3.29145,-3.25426 6.65416,-4.65243 11.18948,-4.65243 4.46107,0 7.8698,1.39532 11.0417,4.51978 3.2185,3.17035 5.04595,8.01153 4.63677,12.28349 -0.2898,3.02555 -1.18717,5.3573 -3.20885,8.33798 -1.00111,1.47599 -2.13353,3.36267 -2.51649,4.19263 -1.21009,2.62252 -0.75074,5.44088 0.95661,5.8694 1.38122,0.34667 20.90601,-0.82104 31.18065,-1.8648 2.8743,-0.29199 5.30589,-0.44438 5.40354,-0.33864 0.0977,0.10574 0.5111,3.75158 0.91878,8.10186 0.9711,10.36239 0.97546,10.41772 1.31234,16.68401 0.2733,5.08351 0.25722,5.48904 -0.28761,7.25299 -1.3029,4.21829 -4.07603,4.37388 -9.30326,0.52198 -3.58396,-2.64099 -6.54856,-3.69627 -10.38397,-3.69627 -4.43529,0 -8.11043,1.5227 -11.24807,4.66034 -6.07618,6.07618 -6.21823,14.93749 -0.34031,21.22852 2.81491,3.01275 6.17118,4.67296 10.20907,5.05 3.89187,0.36342 7.29339,-0.66994 11.37203,-3.45473 4.11341,-2.80853 6.29654,-3.53553 7.95371,-2.64864 0.74083,0.39649 1.62494,2.07007 2.01646,3.81712 0.29668,1.32385 0.0218,8.82246 -0.55473,15.13271 -0.14904,1.63135 -0.54446,6.14407 -0.87871,10.02825 -0.33424,3.88418 -0.69203,7.15544 -0.79507,7.26946 -0.10305,0.11402 -2.66186,-0.0377 -5.68625,-0.3372 -7.13687,-0.70671 -15.99562,-1.33264 -24.25038,-1.71345 l -6.60458,-0.30468 -0.66986,0.6293 c -0.90253,0.84788 -1.24283,2.2007 -0.91766,3.64796 0.34897,1.55315 0.998,2.78178 3.14594,5.95539 2.37525,3.50944 3.16603,5.91408 3.14738,9.57073 -0.023,4.51054 -1.33599,7.70007 -4.49099,10.90962 -3.53077,3.59181 -8.59938,5.35856 -13.30449,4.63749 z"
       id="path5544"
       inkscape:connector-curvature="0"
       transform="matrix(0.75000002,0,0,-0.75000002,0,800.00005)"
       inkscape:export-xdpi="96.031494"
       inkscape:export-ydpi="96.031494" /></g></svg>